<?xml version="1.0" standalone="no"?><!DOCTYPE svg PUBLIC "-//W3C//DTD SVG 1.1//EN" "http://www.w3.org/Graphics/SVG/1.1/DTD/svg11.dtd"><svg height="365" node-id="1" sillyvg="true" template-height="365" template-width="235" version="1.1" viewBox="0 0 235 365" width="235" xmlns="http://www.w3.org/2000/svg" xmlns:xlink="http://www.w3.org/1999/xlink"><defs node-id="30"></defs><g node-id="32"><path d="M 181.00 193.20 L 184.30 186.70 L 186.40 184.00 L 191.20 179.40 L 196.70 176.30 L 199.60 175.30 L 202.50 174.80 L 205.40 174.60 L 208.30 175.00 L 211.20 175.80 L 213.90 177.20 L 216.30 178.80 L 218.50 180.90 L 220.30 183.30 L 221.70 185.90 L 222.90 188.80 L 224.20 195.10 L 223.90 201.90 L 223.20 205.40 L 222.10 208.90 L 218.80 215.40 L 216.70 218.10 L 211.90 222.70 L 206.40 225.80 L 203.50 226.80 L 200.60 227.30 L 197.70 227.50 L 194.80 227.10 L 191.90 226.30 L 189.20 224.90 L 186.80 223.30 L 184.60 221.20 L 182.80 218.90 L 181.40 216.20 L 179.40 210.20 L 178.90 203.60 L 179.90 196.70 L 181.00 193.20 Z" fill="#ffbbb0" fill-rule="nonzero" group-id="1" id="椭圆_2219" node-id="3" stroke="#030515" stroke-linecap="butt" stroke-width="4.9999995" target-height="52.899994" target-width="45.300003" target-x="178.9" target-y="174.6"></path></g><g node-id="33"><path d="M 56.30 193.20 L 58.10 200.20 L 58.40 203.60 L 57.90 210.20 L 55.90 216.20 L 54.40 218.90 L 52.60 221.20 L 50.50 223.30 L 48.10 224.90 L 45.40 226.30 L 42.50 227.10 L 39.60 227.50 L 36.60 227.30 L 33.70 226.80 L 30.90 225.80 L 28.00 224.50 L 22.90 220.60 L 18.50 215.40 L 16.70 212.30 L 15.20 208.90 L 13.30 201.90 L 13.00 198.50 L 13.60 191.90 L 15.50 185.90 L 17.00 183.30 L 18.80 180.90 L 20.90 178.80 L 23.30 177.20 L 26.10 175.80 L 28.90 175.00 L 31.90 174.60 L 34.80 174.80 L 37.70 175.30 L 40.60 176.30 L 46.00 179.40 L 50.90 184.00 L 54.70 189.80 L 56.30 193.20 Z" fill="#ffbbb0" fill-rule="nonzero" group-id="2" id="椭圆_2215" node-id="4" stroke="#030515" stroke-linecap="butt" stroke-width="4.9999995" target-height="52.899994" target-width="45.4" target-x="13" target-y="174.6"></path></g><g node-id="34"><path d="M 65.10 227.50 L 177.10 227.50 L 177.10 287.50 L 176.80 292.70 L 176.00 297.60 L 174.80 302.40 L 173.10 306.90 L 171.00 311.30 L 168.50 315.40 L 165.70 319.30 L 162.40 322.80 L 158.90 326.10 L 155.00 328.90 L 150.90 331.40 L 146.50 333.50 L 142.00 335.20 L 137.20 336.40 L 132.30 337.20 L 127.10 337.50 L 109.90 337.20 L 104.90 336.40 L 100.20 335.20 L 95.60 333.50 L 91.20 331.40 L 87.10 328.90 L 83.30 326.10 L 79.70 322.80 L 76.50 319.30 L 73.60 315.40 L 71.10 311.30 L 69.00 306.90 L 67.30 302.40 L 66.10 297.60 L 65.40 292.70 L 65.10 287.50 L 65.10 227.50 Z" fill="#f5a89c" fill-rule="nonzero" group-id="3" id="矩形_2108" node-id="5" stroke="#030515" stroke-linecap="butt" stroke-width="7" target-height="110" target-width="112.00001" target-x="65.1" target-y="227.5"></path></g><g node-id="35"><path d="M 118.30 73.50 L 125.10 73.70 L 131.50 74.30 L 137.60 75.30 L 143.30 76.60 L 148.70 78.30 L 154.10 80.50 L 159.10 82.90 L 163.90 85.70 L 168.40 88.70 L 172.60 92.10 L 177.50 96.80 L 182.00 101.90 L 186.10 107.50 L 189.80 113.50 L 193.00 119.80 L 195.80 126.50 L 198.20 133.70 L 200.20 141.30 L 201.70 148.90 L 202.80 156.90 L 203.50 165.30 L 203.70 174.10 L 203.50 181.40 L 202.80 188.60 L 201.70 195.80 L 200.10 202.90 L 195.90 216.80 L 190.30 230.00 L 185.90 238.40 L 181.00 246.30 L 175.70 253.70 L 171.50 259.10 L 162.50 268.60 L 153.00 276.60 L 148.10 280.00 L 143.20 282.90 L 138.30 285.30 L 133.10 287.30 L 128.10 288.80 L 123.20 289.70 L 118.30 290.00 L 113.40 289.80 L 108.50 289.00 L 103.30 287.60 L 98.00 285.70 L 93.00 283.30 L 87.90 280.40 L 82.80 277.10 L 72.80 269.00 L 63.30 259.50 L 58.80 254.10 L 53.10 246.60 L 48.00 238.70 L 43.20 230.20 L 37.20 216.90 L 32.60 203.00 L 30.90 195.80 L 29.70 188.60 L 28.90 181.40 L 28.70 174.10 L 28.90 165.30 L 29.70 156.90 L 30.90 148.90 L 32.60 141.30 L 34.80 133.70 L 37.50 126.50 L 40.60 119.80 L 44.10 113.50 L 48.10 107.50 L 52.50 101.90 L 57.30 96.80 L 62.50 92.10 L 68.10 87.90 L 74.10 84.20 L 80.60 81.00 L 87.50 78.30 L 93.00 76.60 L 98.90 75.30 L 105.00 74.30 L 111.50 73.70 L 118.30 73.50 Z" fill="#ffbbb0" fill-rule="nonzero" group-id="4" id="路径_34798" node-id="6" stroke="#030515" stroke-linecap="butt" stroke-width="7" target-height="216.5" target-width="175" target-x="28.7" target-y="73.5"></path></g><g node-id="36"><path d="M 86.90 169.20 L 86.30 172.60 L 85.50 174.20 L 84.00 176.10 L 82.00 177.70 L 80.50 178.40 L 77.10 179.00 L 73.70 178.40 L 72.20 177.70 L 70.20 176.10 L 68.70 174.20 L 68.00 172.60 L 67.40 169.20 L 68.00 165.80 L 68.70 164.30 L 70.20 162.30 L 72.20 160.80 L 73.70 160.10 L 77.10 159.50 L 80.50 160.10 L 82.00 160.80 L 84.00 162.30 L 85.50 164.30 L 86.30 165.80 L 86.90 169.20 Z" fill="#030515" fill-rule="nonzero" group-id="5" id="椭圆_2141" node-id="7" stroke="none" target-height="19.5" target-width="19.5" target-x="67.4" target-y="159.5"></path></g><g node-id="37"><path d="M 169.90 169.20 L 169.30 172.60 L 168.50 174.20 L 167.00 176.10 L 165.00 177.70 L 163.50 178.40 L 160.10 179.00 L 156.70 178.40 L 155.20 177.70 L 153.20 176.10 L 151.70 174.20 L 150.50 171.00 L 150.30 169.20 L 151.00 165.80 L 151.70 164.30 L 153.20 162.30 L 155.20 160.80 L 156.70 160.10 L 160.10 159.50 L 163.50 160.10 L 165.00 160.80 L 167.00 162.30 L 168.50 164.30 L 169.30 165.80 L 169.90 169.20 Z" fill="#030515" fill-rule="nonzero" group-id="6" id="椭圆_2214" node-id="8" stroke="none" target-height="19.5" target-width="19.59999" target-x="150.3" target-y="159.5"></path></g><g node-id="38"><path d="M 33.20 186.50 L 51.40 186.70 L 55.30 188.10 L 58.40 190.70 L 60.50 194.30 L 61.00 196.30 L 61.20 198.50 L 60.50 202.70 L 59.60 204.50 L 56.90 207.60 L 53.40 209.70 L 51.40 210.30 L 49.20 210.50 L 31.00 210.30 L 27.20 208.80 L 24.00 206.20 L 22.00 202.70 L 21.40 200.70 L 21.20 198.50 L 22.00 194.30 L 24.00 190.70 L 27.20 188.10 L 31.00 186.70 L 33.20 186.50 Z" fill="#ff3240" fill-rule="nonzero" group-id="7" id="矩形_2092" node-id="10" stroke="none" target-height="24" target-width="40" target-x="21.2" target-y="186.5"></path><g node-id="49"><path d="M 186.70 186.50 L 204.90 186.70 L 208.80 188.10 L 211.90 190.70 L 214.00 194.30 L 214.50 196.30 L 214.70 198.50 L 214.00 202.70 L 213.10 204.50 L 210.40 207.60 L 206.90 209.70 L 204.90 210.30 L 202.70 210.50 L 184.50 210.30 L 180.70 208.80 L 177.50 206.20 L 175.50 202.70 L 174.90 200.70 L 174.70 198.50 L 175.50 194.30 L 177.50 190.70 L 180.70 188.10 L 184.50 186.70 L 186.70 186.50 Z" fill="#ff3240" fill-rule="nonzero" group-id="7,18" id="矩形_2109" node-id="11" stroke="none" target-height="24" target-width="40" target-x="174.7" target-y="186.5"></path></g></g><g node-id="39"><path d="M 89.70 225.10 L 98.20 228.00 L 102.20 229.00 L 111.80 230.60 L 116.80 230.80 L 121.80 230.60 L 131.10 229.00 L 135.00 228.00 L 143.10 225.10" fill="none" group-id="8" id="路径_34770" node-id="12" stroke="#030515" stroke-linecap="round" stroke-width="6" target-height="5.699997" target-width="53.40001" target-x="89.7" target-y="225.1"></path></g><g node-id="40"><path d="M 128.20 245.50 L 127.50 246.80 L 124.80 248.30 L 119.40 249.30 L 116.20 249.50 L 112.90 249.30 L 107.60 248.30 L 104.80 246.80 L 104.20 245.50 L 104.80 244.10 L 107.60 242.70 L 112.90 241.60 L 116.20 241.50 L 119.40 241.60 L 124.80 242.70 L 127.50 244.10 L 128.20 245.50 Z" fill="#ffbbb0" fill-opacity="0.8" fill-rule="nonzero" group-id="9" id="椭圆_2217" node-id="13" stroke="none" target-height="8" target-width="24" target-x="104.2" target-y="241.5"></path></g><g node-id="41"><path d="M 15.00 152.00 L 15.30 160.00 L 14.40 165.40 L 12.50 169.60 L 8.70 173.30 L 8.60 173.70 L 10.60 173.90 L 17.80 171.80 L 27.70 167.30 L 33.00 164.20 L 38.10 160.70 L 42.80 156.60 L 46.90 152.10 L 50.30 147.50 L 53.30 142.60 L 57.60 133.40 L 59.00 129.50 L 61.40 121.10 Z" fill="#6a1b30" fill-rule="nonzero" group-id="10" id="路径_34794" node-id="14" stroke="#030515" stroke-linecap="butt" stroke-width="7" target-height="52.799995" target-width="52.800003" target-x="8.6" target-y="121.1"></path></g><g node-id="42"><path d="M 219.10 148.20 L 226.30 172.90 L 213.50 171.30 L 207.50 170.20 L 193.00 166.60 L 185.20 164.00 L 175.00 159.50 L 170.00 156.80 L 165.30 153.80 L 161.30 150.60 L 157.80 147.30 L 151.90 140.20 L 146.90 131.60 L 143.40 122.90 L 142.10 117.30 Z" fill="#6a1b30" fill-rule="nonzero" group-id="11" id="路径_34795" node-id="15" stroke="#030515" stroke-linecap="butt" stroke-width="7" target-height="55.59999" target-width="84.2" target-x="142.1" target-y="117.3"></path></g><g node-id="43"><path d="M 171.60 122.60 L 178.90 147.30 L 166.10 145.70 L 160.00 144.60 L 145.50 141.00 L 137.80 138.40 L 127.50 133.90 L 122.60 131.20 L 117.90 128.20 L 113.80 125.00 L 110.30 121.70 L 104.40 114.60 L 99.40 106.00 L 96.00 97.40 L 94.60 91.70 Z" fill="#6a1b30" fill-rule="nonzero" group-id="12" id="路径_34796" node-id="16" stroke="#030515" stroke-linecap="butt" stroke-width="7" target-height="55.600006" target-width="84.299995" target-x="94.6" target-y="91.7"></path></g><g node-id="44"><g node-id="50"><g node-id="52"><path d="M 106.40 11.20 L 107.10 15.10 L 107.90 16.90 L 110.40 19.80 L 113.70 21.70 L 117.60 22.40 L 121.50 21.70 L 123.20 20.90 L 126.10 18.40 L 128.10 15.10 L 128.80 11.20 L 128.10 7.30 L 126.10 4.00 L 123.20 1.50 L 121.50 0.70 L 117.60 0.00 L 113.70 0.70 L 110.40 2.60 L 107.90 5.50 L 107.10 7.30 L 106.40 11.20 Z" fill="#030515" fill-rule="nonzero" group-id="13,19,21" id="路径_34790" node-id="19" stroke="none" target-height="22.4" target-width="22.400002" target-x="106.4" target-y="0"></path></g><g node-id="53"><path d="M 117.50 12.50 L 126.10 12.80 L 134.30 13.60 L 142.30 15.00 L 150.00 16.90 L 157.60 19.40 L 164.80 22.20 L 171.70 25.60 L 178.20 29.30 L 184.50 33.50 L 190.30 38.10 L 195.60 43.00 L 200.50 48.20 L 204.90 53.80 L 208.90 59.60 L 212.20 65.70 L 215.10 72.10 L 216.90 77.40 L 218.40 82.80 L 219.40 88.30 L 220.10 93.90 L 220.30 99.70 L 220.30 147.30 L 116.30 101.80 L 14.70 147.30 L 14.70 99.70 L 14.90 93.90 L 15.60 88.20 L 16.60 82.70 L 18.10 77.40 L 19.90 72.10 L 22.80 65.70 L 26.10 59.60 L 30.10 53.80 L 34.50 48.20 L 39.40 42.90 L 44.70 38.10 L 50.50 33.50 L 56.80 29.30 L 63.30 25.60 L 70.20 22.20 L 77.40 19.40 L 85.00 16.90 L 92.70 15.00 L 100.70 13.60 L 108.90 12.80 L 117.50 12.50 Z" fill="#f8da43" fill-rule="nonzero" group-id="13,19,22" id="路径_34783" node-id="20" stroke="#030515" stroke-linecap="butt" stroke-width="7" target-height="134.8" target-width="205.6" target-x="14.7" target-y="12.5"></path></g><g node-id="54"><g node-id="55"><path d="M 108.50 12.50 L 98.40 23.40 L 91.30 32.40 L 84.70 42.70 L 82.00 48.10 L 79.70 53.90 L 76.00 65.80 L 73.60 78.00 L 73.00 84.20" fill="none" group-id="13,19,23,24" id="路径_34791" node-id="22" stroke="#030515" stroke-linecap="round" stroke-width="6" target-height="71.7" target-width="35.5" target-x="73" target-y="12.5"></path></g><path d="M 126.30 12.50 L 136.30 23.40 L 143.40 32.40 L 150.00 42.70 L 152.70 48.10 L 155.00 53.90 L 158.70 65.80 L 161.10 78.00 L 161.80 84.20" fill="none" group-id="13,19,23,25" id="路径_34792" node-id="23" stroke="#030515" stroke-linecap="round" stroke-width="6" target-height="71.7" target-width="35.5" target-x="126.3" target-y="12.5"></path></g></g><path d="M 208.80 148.30 L 200.60 145.30 L 169.80 132.60 L 155.40 128.20 L 141.90 125.50 L 134.70 124.60 L 117.50 123.80 L 100.30 124.60 L 93.10 125.50 L 79.40 128.20 L 64.90 132.60 L 34.00 145.30 L 21.40 149.70 L 17.70 150.40 L 14.40 150.60 L 9.80 149.70 L 6.50 147.80 L 5.20 146.40 L 4.30 144.70 L 3.70 142.60 L 3.50 140.10 L 13.40 103.80 L 25.10 98.70 L 36.80 94.20 L 48.40 90.40 L 60.00 87.10 L 71.40 84.50 L 82.90 82.50 L 94.30 81.10 L 105.80 80.20 L 117.20 79.90 L 128.70 80.20 L 140.10 81.00 L 151.60 82.50 L 163.00 84.50 L 174.50 87.10 L 186.10 90.40 L 197.70 94.20 L 209.30 98.70 L 221.10 103.80 L 231.10 140.10 L 230.80 142.60 L 230.30 144.70 L 229.30 146.40 L 228.10 147.80 L 224.80 149.70 L 222.70 150.30 L 220.20 150.60 L 216.90 150.40 L 213.20 149.70 L 208.80 148.30 Z" fill="#f8b643" fill-rule="nonzero" group-id="13,20" id="路径_34789" node-id="24" stroke="#030515" stroke-linecap="butt" stroke-width="7" target-height="70.700005" target-width="227.6" target-x="3.5" target-y="79.9"></path></g><g node-id="45"><path d="M 84.00 172.90 L 83.70 174.20 L 83.00 175.30 L 81.90 176.00 L 80.50 176.30 L 79.20 176.00 L 78.10 175.30 L 77.40 174.20 L 77.10 172.90 L 77.40 171.50 L 78.10 170.50 L 79.20 169.70 L 80.50 169.50 L 81.90 169.70 L 83.00 170.50 L 83.70 171.50 L 84.00 172.90 Z" fill="#ffffff" fill-rule="nonzero" group-id="14" id="椭圆_2220" node-id="25" stroke="none" target-height="6.800003" target-width="6.9000015" target-x="77.1" target-y="169.5"></path></g><g node-id="46"><path d="M 161.10 172.90 L 160.80 174.20 L 160.10 175.30 L 159.00 176.00 L 157.70 176.30 L 156.30 176.00 L 155.20 175.30 L 154.50 174.20 L 154.20 172.90 L 154.50 171.50 L 155.20 170.50 L 156.30 169.70 L 157.70 169.50 L 159.00 169.70 L 160.10 170.50 L 160.80 171.50 L 161.10 172.90 Z" fill="#ffffff" fill-rule="nonzero" group-id="15" id="椭圆_2221" node-id="26" stroke="none" target-height="6.800003" target-width="6.900009" target-x="154.2" target-y="169.5"></path></g><g node-id="47"><path d="M 38.60 283.50 L 39.80 295.90 L 41.70 303.90 L 43.30 309.10 L 47.70 319.40 L 52.80 328.20 L 55.90 332.50 L 59.40 336.80 L 63.50 341.00 L 68.00 344.90 L 73.10 348.50 L 78.80 351.90 L 88.20 356.10 L 99.40 359.20 L 105.20 360.30 L 111.50 361.00 L 118.40 361.40 L 126.00 361.30 L 133.60 360.80 L 146.70 358.80 L 158.00 355.70 L 163.10 353.70 L 171.90 349.30 L 177.30 345.70 L 181.90 342.00 L 185.90 338.20 L 189.50 334.10 L 192.60 330.00 L 195.20 325.90 L 197.40 321.60 L 200.70 313.60 L 202.40 307.90 L 204.10 298.60 L 204.50 292.80 L 204.50 284.40 L 177.60 282.50 L 176.00 294.70 L 175.00 300.10 L 172.50 308.00 L 169.30 314.30 L 165.20 319.60 L 162.70 322.20 L 156.00 327.10 L 152.10 329.20 L 147.60 331.10 L 142.20 332.80 L 136.70 334.10 L 130.30 335.00 L 122.90 335.60 L 115.40 335.50 L 108.90 334.90 L 103.20 333.90 L 97.70 332.30 L 92.80 330.40 L 88.70 328.30 L 84.70 325.80 L 81.30 323.10 L 78.40 320.40 L 75.80 317.40 L 71.80 311.70 L 69.50 307.40 L 66.80 300.30 L 65.20 291.70 L 64.90 285.40 L 64.90 278.60 Z" fill="#f8db4c" fill-rule="nonzero" group-id="16" id="路径_34806" node-id="27" stroke="#030515" stroke-linecap="round" stroke-width="7" target-height="82.79999" target-width="165.9" target-x="38.6" target-y="278.6"></path></g><path d="M 113.70 184.90 L 112.00 187.80 L 107.50 194.10 L 106.80 196.40 L 107.00 197.40 L 108.90 200.10 L 115.40 206.00" fill="none" group-id="17" id="路径_34423" node-id="28" stroke="#030515" stroke-linecap="round" stroke-width="5" target-height="21.100006" target-width="8.599998" target-x="106.8" target-y="184.9"></path></svg>