<?xml version="1.0" standalone="no"?><!DOCTYPE svg PUBLIC "-//W3C//DTD SVG 1.1//EN" "http://www.w3.org/Graphics/SVG/1.1/DTD/svg11.dtd"><svg height="212" node-id="1" sillyvg="true" template-height="212" template-width="201" version="1.1" viewBox="0 0 201 212" width="201" xmlns="http://www.w3.org/2000/svg" xmlns:xlink="http://www.w3.org/1999/xlink"><defs node-id="175"><linearGradient gradientUnits="objectBoundingBox" id="未命名的渐变_117" node-id="5" spreadMethod="pad" x1="168.36" x2="180.27" y1="131.88" y2="131.88"><stop offset="0" stop-color="#eebb60"></stop><stop offset="1" stop-color="#ed6e1c"></stop></linearGradient><linearGradient gradientUnits="objectBoundingBox" id="未命名的渐变_117-2" node-id="8" spreadMethod="pad" x1="56.35" x2="66.6" y1="98.89" y2="98.89"><stop offset="0" stop-color="#eebb60"></stop><stop offset="1" stop-color="#ed6e1c"></stop></linearGradient><linearGradient gradientUnits="objectBoundingBox" id="未命名的渐变_117-3" node-id="9" spreadMethod="pad" x1="164.37" x2="171.2" y1="139.58" y2="139.58"><stop offset="0" stop-color="#eebb60"></stop><stop offset="1" stop-color="#ed6e1c"></stop></linearGradient><linearGradient gradientUnits="objectBoundingBox" id="未命名的渐变_117-4" node-id="10" spreadMethod="pad" x1="158.76" x2="172.08" y1="133.32" y2="133.32"><stop offset="0" stop-color="#eebb60"></stop><stop offset="1" stop-color="#ed6e1c"></stop></linearGradient><linearGradient gradientUnits="objectBoundingBox" id="未命名的渐变_117-5" node-id="11" spreadMethod="pad" x1="57.85" x2="56.89" y1="118.32" y2="100.94"><stop offset="0" stop-color="#eebb60"></stop><stop offset="1" stop-color="#ed6e1c"></stop></linearGradient><linearGradient gradientUnits="objectBoundingBox" id="未命名的渐变_117-6" node-id="12" spreadMethod="pad" x1="178.91" x2="186.73" y1="141.24" y2="141.24"><stop offset="0" stop-color="#eebb60"></stop><stop offset="1" stop-color="#ed6e1c"></stop></linearGradient><linearGradient gradientUnits="objectBoundingBox" id="未命名的渐变_117-7" node-id="13" spreadMethod="pad" x1="65.98" x2="72.72" y1="106.02" y2="106.02"><stop offset="0" stop-color="#eebb60"></stop><stop offset="1" stop-color="#ed6e1c"></stop></linearGradient><linearGradient gradientUnits="objectBoundingBox" id="未命名的渐变_117-8" node-id="14" spreadMethod="pad" x1="176.29" x2="180.77" y1="146.29" y2="146.29"><stop offset="0" stop-color="#eebb60"></stop><stop offset="1" stop-color="#ed6e1c"></stop></linearGradient><linearGradient gradientUnits="objectBoundingBox" id="未命名的渐变_117-9" node-id="15" spreadMethod="pad" x1="172.61" x2="181.35" y1="142.19" y2="142.19"><stop offset="0" stop-color="#eebb60"></stop><stop offset="1" stop-color="#ed6e1c"></stop></linearGradient><linearGradient gradientUnits="objectBoundingBox" id="未命名的渐变_117-10" node-id="16" spreadMethod="pad" x1="66.97" x2="66.34" y1="118.78" y2="107.37"><stop offset="0" stop-color="#eebb60"></stop><stop offset="1" stop-color="#ed6e1c"></stop></linearGradient></defs><g node-id="965"><path d="M 46.40 123.60 L 92.10 104.00 L 92.30 104.60 L 46.70 124.20 Z" fill="#352f2d" fill-rule="nonzero" group-id="1" node-id="240" stroke="none" target-height="20.199997" target-width="45.9" target-x="46.4" target-y="104"></path></g><g node-id="966"><path d="M 40.60 120.10 L 86.20 100.50 L 86.40 101.10 L 40.80 120.70 Z" fill="#352f2d" fill-rule="nonzero" group-id="2" node-id="245" stroke="none" target-height="20.199997" target-width="45.800003" target-x="40.6" target-y="100.5"></path></g><g node-id="967"><path d="M 35.50 116.00 L 81.10 96.40 L 81.40 97.10 L 35.80 116.70 Z" fill="#352f2d" fill-rule="nonzero" group-id="3" node-id="250" stroke="none" target-height="20.299995" target-width="45.9" target-x="35.5" target-y="96.4"></path></g><g node-id="968"><path d="M 30.50 112.00 L 76.10 92.40 L 76.30 93.00 L 30.70 112.60 Z" fill="#352f2d" fill-rule="nonzero" group-id="4" node-id="255" stroke="none" target-height="20.199997" target-width="45.800003" target-x="30.5" target-y="92.4"></path></g><g node-id="969"><path d="M 25.40 108.00 L 71.00 88.40 L 71.30 89.00 L 25.70 108.60 Z" fill="#352f2d" fill-rule="nonzero" group-id="5" node-id="260" stroke="none" target-height="20.199997" target-width="45.9" target-x="25.4" target-y="88.4"></path></g><g node-id="970"><path d="M 21.90 103.00 L 67.50 83.40 L 67.80 84.00 L 22.20 103.60 Z" fill="#352f2d" fill-rule="nonzero" group-id="6" node-id="265" stroke="none" target-height="20.199997" target-width="45.9" target-x="21.9" target-y="83.4"></path></g><g node-id="971"><path d="M 18.70 99.10 L 64.30 79.50 L 64.50 80.10 L 18.90 99.70 Z" fill="#352f2d" fill-rule="nonzero" group-id="7" node-id="270" stroke="none" target-height="20.199997" target-width="45.8" target-x="18.7" target-y="79.5"></path></g><g node-id="972"><path d="M 15.80 93.60 L 61.40 74.00 L 61.70 74.70 L 16.10 94.30 Z" fill="#352f2d" fill-rule="nonzero" group-id="8" node-id="275" stroke="none" target-height="20.300003" target-width="45.9" target-x="15.8" target-y="74"></path></g><g node-id="973"><path d="M 12.90 89.20 L 58.50 69.60 L 58.80 70.30 L 13.20 89.90 Z" fill="#352f2d" fill-rule="nonzero" group-id="9" node-id="280" stroke="none" target-height="20.300003" target-width="45.9" target-x="12.9" target-y="69.6"></path></g><g node-id="974"><path d="M 10.80 83.10 L 56.50 63.50 L 56.70 64.20 L 11.10 83.80 Z" fill="#352f2d" fill-rule="nonzero" group-id="10" node-id="285" stroke="none" target-height="20.300003" target-width="45.9" target-x="10.8" target-y="63.5"></path></g><g node-id="975"><path d="M 9.50 78.00 L 51.00 60.20 L 51.20 60.80 L 9.80 78.60 Z" fill="#352f2d" fill-rule="nonzero" group-id="11" node-id="290" stroke="none" target-height="18.399998" target-width="41.7" target-x="9.5" target-y="60.2"></path></g><g node-id="976"><path d="M 7.90 72.90 L 35.70 60.20 L 36.00 60.80 L 8.20 73.50 Z" fill="#352f2d" fill-rule="nonzero" group-id="12" node-id="295" stroke="none" target-height="13.299999" target-width="28.1" target-x="7.9" target-y="60.2"></path></g><g node-id="977"><path d="M 6.90 66.10 L 26.70 58.00 L 26.90 58.60 L 7.10 66.70 Z" fill="#352f2d" fill-rule="nonzero" group-id="13" node-id="300" stroke="none" target-height="8.699997" target-width="20" target-x="6.9" target-y="58"></path></g><g node-id="978"><path d="M 127.90 127.10 L 132.20 137.10 L 134.30 143.40 L 136.00 149.80 L 137.40 157.10 L 138.60 165.50 L 140.60 165.00 L 143.70 165.20 L 142.40 156.20 L 140.90 148.30 L 139.00 141.40 L 136.70 134.60 L 132.00 123.90 L 125.50 127.70 Z" fill="#352f2d" fill-rule="nonzero" group-id="14" node-id="305" stroke="none" target-height="41.6" target-width="18.199997" target-x="125.5" target-y="123.9"></path></g><g node-id="979"><path d="M 139.30 173.40 L 139.20 171.60 L 138.90 172.50 L 139.10 175.10 L 139.90 176.70 L 141.10 178.00 L 142.70 178.80 L 143.90 178.90 L 145.00 178.50 L 145.70 177.70 L 146.30 175.80 L 146.10 174.50 L 145.10 172.20 L 144.30 171.20 L 144.40 173.10 Z" fill="#999999" fill-rule="nonzero" group-id="15" node-id="310" stroke="none" target-height="7.699997" target-width="7.400009" target-x="138.9" target-y="171.2"></path></g><g node-id="980"><path d="M 141.50 170.00 L 139.90 170.60 L 139.20 171.60 L 139.30 173.40 L 144.40 173.10 L 144.30 171.20 L 142.00 170.10 Z" fill="#999999" fill-rule="nonzero" group-id="16" node-id="315" stroke="none" target-height="3.399994" target-width="5.199997" target-x="139.2" target-y="170"></path></g><g node-id="981"><path d="M 148.80 175.90 L 148.40 177.80 L 147.70 179.30 L 146.60 180.50 L 145.30 181.20 L 143.70 181.50 L 142.00 181.30 L 139.00 179.50 L 137.00 176.70 L 136.30 173.30 L 136.90 170.40 L 138.90 168.20 L 138.60 165.50 L 136.60 166.80 L 135.30 168.10 L 133.90 171.40 L 133.70 173.30 L 133.90 175.60 L 134.60 177.80 L 135.80 179.80 L 137.30 181.50 L 139.10 182.80 L 141.30 183.70 L 143.50 184.00 L 145.10 183.90 L 148.00 182.60 L 149.40 181.20 L 150.40 179.70 L 151.10 177.90 L 151.30 176.00 L 151.20 173.50 L 150.50 171.30 L 149.40 169.30 L 147.80 167.50 L 146.00 166.20 L 143.70 165.20 L 144.00 168.00 L 145.40 168.90 L 147.60 171.20 L 148.70 174.20 L 148.80 175.90 Z" fill="#352f2d" fill-rule="nonzero" group-id="17" node-id="320" stroke="none" target-height="18.800003" target-width="17.600006" target-x="133.7" target-y="165.2"></path></g><g node-id="982"><path d="M 138.60 165.50 L 138.90 168.20 L 140.60 167.60 L 142.30 167.50 L 144.10 168.00 L 143.80 165.20 L 140.60 165.00 L 138.60 165.50 Z" fill="#352f2d" fill-rule="nonzero" group-id="18" node-id="325" stroke="none" target-height="3.199997" target-width="5.5" target-x="138.6" target-y="165"></path></g><g node-id="983"><path d="M 136.30 173.30 L 136.40 175.10 L 137.80 178.20 L 140.30 180.60 L 142.00 181.30 L 143.70 181.50 L 145.30 181.20 L 146.60 180.50 L 147.70 179.30 L 148.40 177.80 L 148.80 175.90 L 148.70 174.20 L 147.60 171.30 L 145.40 168.90 L 144.00 168.10 L 144.30 171.20 L 145.10 172.20 L 146.20 174.50 L 146.10 176.80 L 145.00 178.50 L 143.90 179.00 L 142.70 178.90 L 141.10 178.00 L 139.90 176.70 L 139.10 175.20 L 138.80 173.40 L 139.20 171.60 L 138.90 168.20 L 136.90 170.40 L 136.30 173.30 Z" fill="#352f2d" fill-rule="nonzero" group-id="19" node-id="330" stroke="none" target-height="13.399994" target-width="12.5" target-x="136.3" target-y="168.1"></path></g><g node-id="984"><path d="M 139.90 170.60 L 140.70 170.20 L 142.00 170.00 L 144.30 171.20 L 144.00 168.00 L 142.30 167.50 L 140.60 167.60 L 138.90 168.20 L 139.20 171.60 L 139.90 170.60 Z" fill="#352f2d" fill-rule="nonzero" group-id="20" node-id="335" stroke="none" target-height="4.100006" target-width="5.400009" target-x="138.9" target-y="167.5"></path></g><g node-id="985"><path d="M 63.40 49.50 L 66.10 40.40 L 66.80 36.60 L 67.20 31.10 L 66.70 22.90 L 64.70 15.60 L 63.90 13.70 L 62.90 12.40 L 60.30 10.80 L 57.00 10.40 L 53.90 11.00 L 51.50 12.70 L 49.50 14.60 L 47.70 16.90 L 47.40 18.50 L 45.70 21.00 L 45.00 25.00 L 45.30 28.40 L 46.00 32.00 L 47.60 37.10 L 47.50 43.00 L 43.50 59.70 L 42.50 64.90 L 42.30 68.00 L 43.90 63.40 L 45.30 61.40 L 46.80 65.50 L 47.70 67.10 L 50.40 69.90 L 52.10 70.80 L 49.40 64.70 L 49.10 62.20 L 53.90 68.00 L 55.90 71.60 L 56.20 73.10 L 56.10 70.50 L 55.60 68.50 L 54.70 66.40 L 51.70 61.00 L 51.20 59.10 L 51.40 56.40 L 51.90 54.90 L 52.70 59.90 L 54.30 63.60 L 56.20 62.40 L 58.00 60.40 L 59.60 58.10 L 60.90 55.70 L 63.40 49.50 Z" fill="#231815" fill-rule="nonzero" group-id="21" node-id="340" stroke="none" target-height="62.699997" target-width="24.899998" target-x="42.3" target-y="10.4"></path></g><g node-id="986"><path d="M 48.70 22.20 L 48.00 22.20 L 47.40 22.80 L 46.70 25.60 L 46.90 27.70 L 47.60 29.80 L 48.90 32.20 L 51.80 35.00 L 54.10 36.50 L 56.50 37.50 L 59.10 37.90 L 61.60 37.70 L 64.00 36.90 L 66.20 35.60 L 68.20 33.80 L 68.70 33.90 L 68.60 32.40 L 67.70 30.00 L 63.80 22.10 L 60.00 19.30 L 58.10 18.50 L 56.10 17.90 L 54.10 17.70 L 52.00 18.10 L 50.70 18.80 L 48.20 21.50 L 48.70 22.20 Z" fill="#ebc3a9" fill-rule="nonzero" group-id="22" node-id="345" stroke="none" target-height="20.2" target-width="21.999996" target-x="46.7" target-y="17.7"></path></g><g node-id="987"><path d="M 48.70 22.20 L 49.10 20.40 L 49.50 19.90 L 58.30 19.50 L 59.80 19.00 L 60.50 18.30 L 59.30 18.00 L 56.00 18.10 L 48.70 18.80 L 47.80 19.20 L 47.50 19.80 L 48.70 22.20 Z" fill="#231815" fill-rule="nonzero" group-id="23" node-id="350" stroke="none" target-height="4.200001" target-width="13" target-x="47.5" target-y="18"></path></g><g node-id="988"><path d="M 51.80 16.20 L 55.20 17.40 L 58.40 19.00 L 61.40 20.90 L 64.20 23.20 L 60.10 20.50 L 56.10 18.60 L 52.00 17.40 Z" fill="#231815" fill-rule="nonzero" group-id="24" node-id="355" stroke="none" target-height="7" target-width="12.399998" target-x="51.8" target-y="16.2"></path></g><g node-id="989"><path d="M 48.80 16.70 L 52.30 17.50 L 55.70 18.60 L 58.90 20.10 L 61.90 22.10 L 57.50 19.90 L 53.30 18.40 L 49.10 17.80 Z" fill="#231815" fill-rule="nonzero" group-id="25" node-id="360" stroke="none" target-height="5.3999996" target-width="13.100002" target-x="48.8" target-y="16.7"></path></g><g node-id="990"><path d="M 48.40 18.40 L 51.90 19.30 L 55.40 19.90 L 59.00 20.10 L 62.60 19.90 L 57.60 19.60 L 53.30 18.90 L 49.20 17.50 Z" fill="#231815" fill-rule="nonzero" group-id="26" node-id="365" stroke="none" target-height="2.6000004" target-width="14.199997" target-x="48.4" target-y="17.5"></path></g><g node-id="991"><path d="M 51.60 17.90 L 55.10 18.90 L 58.60 19.50 L 62.10 19.60 L 65.70 19.40 L 60.80 19.20 L 56.40 18.50 L 52.30 17.10 Z" fill="#231815" fill-rule="nonzero" group-id="27" node-id="370" stroke="none" target-height="2.5" target-width="14.099998" target-x="51.6" target-y="17.1"></path></g><g node-id="992"><path d="M 50.40 17.80 L 53.90 18.80 L 57.40 19.40 L 61.00 19.50 L 64.60 19.30 L 59.60 19.10 L 55.20 18.40 L 51.20 17.00 Z" fill="#231815" fill-rule="nonzero" group-id="28" node-id="375" stroke="none" target-height="2.5" target-width="14.199997" target-x="50.4" target-y="17"></path></g><g node-id="993"><path d="M 50.30 18.40 L 53.80 19.30 L 57.30 19.90 L 60.90 20.10 L 64.50 19.90 L 59.50 19.60 L 55.10 18.90 L 51.10 17.50 Z" fill="#231815" fill-rule="nonzero" group-id="29" node-id="380" stroke="none" target-height="2.6000004" target-width="14.200001" target-x="50.3" target-y="17.5"></path></g><g node-id="994"><path d="M 52.50 17.30 L 56.00 18.30 L 59.50 18.90 L 63.00 19.10 L 66.70 18.80 L 61.70 18.60 L 57.30 17.90 L 53.30 16.50 Z" fill="#231815" fill-rule="nonzero" group-id="30" node-id="385" stroke="none" target-height="2.6000004" target-width="14.199997" target-x="52.5" target-y="16.5"></path></g><g node-id="995"><path d="M 50.10 29.20 L 51.10 28.20 L 50.70 28.20 L 49.10 29.20 L 48.50 30.80 L 48.70 31.30 L 50.10 29.20 Z" fill="#423531" fill-rule="nonzero" group-id="31" node-id="390" stroke="none" target-height="3.0999985" target-width="2.5999985" target-x="48.5" target-y="28.2"></path></g><g node-id="996"><path d="M 54.20 21.10 L 53.50 22.20 L 52.90 24.50 L 52.20 25.90 L 51.20 25.20 L 50.90 24.30 L 51.10 23.50 L 52.70 21.50 L 54.10 20.80 Z" fill="#423531" fill-rule="nonzero" group-id="32" node-id="395" stroke="none" target-height="5.1000004" target-width="3.2999992" target-x="50.9" target-y="20.8"></path></g><g node-id="997"><path d="M 48.70 22.20 L 47.40 24.00 L 47.70 26.70 L 49.50 29.70 L 53.10 33.30 L 52.60 34.90 L 52.00 35.40 L 51.40 35.50 L 50.30 35.00 L 48.90 33.50 L 46.80 29.10 L 46.00 26.60 L 45.70 24.00 L 45.90 22.90 L 47.20 22.20 L 48.70 22.20 Z" fill="#231815" fill-rule="nonzero" group-id="33" node-id="400" stroke="none" target-height="13.299999" target-width="7.3999977" target-x="45.7" target-y="22.2"></path></g><g node-id="998"><path d="M 51.70 28.50 L 52.10 26.80 L 52.10 24.00 L 52.40 21.90 L 53.70 20.00 L 54.70 19.50 L 56.40 19.50 L 65.90 13.80 L 66.20 14.70 L 58.20 20.60 L 59.00 21.50 L 59.40 23.60 L 59.30 25.40 L 58.20 27.50 L 55.90 28.60 L 53.50 28.20 L 53.40 28.90 L 54.50 29.80 L 55.80 32.10 L 55.90 33.50 L 55.60 34.90 L 54.70 36.00 L 53.50 36.70 L 52.10 36.80 L 50.70 36.30 L 49.60 35.40 L 49.00 34.20 L 48.80 32.70 L 49.10 31.40 L 50.50 29.30 L 51.70 28.50 Z" fill="#b64c66" fill-rule="nonzero" group-id="34" node-id="405" stroke="none" target-height="23" target-width="17.399998" target-x="48.8" target-y="13.8"></path></g><g node-id="999"><path d="M 49.90 32.60 L 50.70 30.50 L 51.40 29.90 L 52.50 29.60 L 53.70 30.00 L 54.30 30.70 L 55.10 33.10 L 54.40 35.20 L 53.70 35.60 L 52.60 35.70 L 51.00 35.10 L 50.40 34.40 L 49.90 32.60 Z" fill="#231815" fill-rule="nonzero" group-id="35" node-id="410" stroke="none" target-height="6.1000004" target-width="5.199997" target-x="49.9" target-y="29.6"></path></g><g node-id="1000"><path d="M 53.00 24.70 L 53.60 22.60 L 54.30 22.00 L 55.30 21.70 L 56.70 22.10 L 57.80 23.60 L 57.90 25.80 L 57.30 27.10 L 56.60 27.60 L 55.50 27.80 L 54.30 27.50 L 53.20 26.10 L 53.00 24.70 Z" fill="#231815" fill-rule="nonzero" group-id="36" node-id="415" stroke="none" target-height="6.0999985" target-width="4.9000015" target-x="53" target-y="21.7"></path></g><g node-id="1001"><path d="M 74.70 40.70 L 72.50 13.80 L 70.40 11.90 L 68.60 10.80 L 66.50 10.00 L 63.70 9.30 L 59.30 9.30 L 56.60 9.80 L 53.90 11.10 L 57.00 10.40 L 60.30 10.80 L 62.90 12.50 L 63.90 13.80 L 64.70 15.70 L 66.70 23.00 L 67.20 31.10 L 66.80 36.70 L 66.10 40.50 L 65.00 44.80 L 62.80 51.40 L 60.90 55.70 L 58.00 60.50 L 56.20 62.50 L 54.30 63.70 L 55.00 64.70 L 57.00 66.10 L 58.20 66.40 L 60.50 66.30 L 66.80 64.50 L 77.40 59.70 Z" fill="#1e130e" fill-rule="nonzero" group-id="37" node-id="420" stroke="none" target-height="57.100002" target-width="23.5" target-x="53.9" target-y="9.3"></path></g><g node-id="1002"><path d="M 104.00 192.80 L 104.40 195.60 L 105.20 197.50 L 106.50 199.30 L 108.60 201.10 L 110.20 202.10 L 115.40 203.70 L 127.00 204.90 L 131.70 205.80 L 120.80 194.30 Z" fill="#302c21" fill-rule="nonzero" group-id="38" node-id="425" stroke="none" target-height="13" target-width="27.699997" target-x="104" target-y="192.8"></path></g><g node-id="1003"><path d="M 140.80 185.70 L 140.60 189.80 L 141.00 192.30 L 140.90 197.80 L 140.60 199.20 L 140.00 199.80 L 137.80 200.60 L 133.40 200.30 L 120.60 196.70 L 115.50 194.90 L 112.80 193.40 L 110.20 191.50 L 107.90 189.20 L 106.60 187.40 L 105.80 184.80 L 106.10 183.30 L 106.50 182.90 L 108.20 182.50 L 111.90 183.80 L 114.50 184.00 L 119.00 183.30 L 120.80 182.50 L 134.50 181.00 Z" fill="#ea6590" fill-rule="nonzero" group-id="39" node-id="430" stroke="none" target-height="19.600006" target-width="35.199997" target-x="105.8" target-y="181"></path></g><g node-id="1004"><path d="M 131.00 183.20 L 133.00 184.90 L 136.40 186.00 L 140.80 185.70 L 141.60 184.70 L 141.80 184.00 L 141.60 183.20 L 140.80 182.10 L 139.50 181.20 L 137.00 180.00 L 134.30 179.20 L 132.80 179.20 L 131.70 179.70 L 130.80 181.40 L 131.00 183.20 Z" fill="#eaddc2" fill-rule="nonzero" group-id="40" node-id="435" stroke="none" target-height="6.800003" target-width="11" target-x="130.8" target-y="179.2"></path></g><g node-id="1005"><path d="M 131.00 183.20 L 132.30 184.50 L 133.60 185.30 L 135.20 185.80 L 137.60 186.00 L 137.00 180.00 L 136.40 179.10 L 135.00 179.60 L 133.80 180.40 L 131.00 183.20 Z" fill="#ebc3a9" fill-rule="nonzero" group-id="41" node-id="440" stroke="none" target-height="6.899994" target-width="6.600006" target-x="131" target-y="179.1"></path></g><g node-id="1006"><path d="M 111.90 183.80 L 108.20 182.50 L 107.00 182.60 L 106.10 183.30 L 105.80 184.80 L 106.00 186.10 L 106.60 187.40 L 108.10 189.40 L 112.00 183.80 Z" fill="#efe2ca" fill-rule="nonzero" group-id="42" node-id="445" stroke="none" target-height="6.899994" target-width="6.199997" target-x="105.8" target-y="182.5"></path></g><path d="M 114.10 189.90 L 113.60 190.30 L 113.20 189.90 L 113.60 189.50 L 114.10 189.90 Z" fill="none" node-id="448" stroke="#ffffff" stroke-linecap="butt" stroke-width="1" target-height="0.80000305" target-width="0.9000015" target-x="113.2" target-y="189.5"></path><path d="M 116.60 190.50 L 116.20 190.80 L 115.70 190.50 L 116.20 190.10 L 116.60 190.50 Z" fill="none" node-id="450" stroke="#ffffff" stroke-linecap="butt" stroke-width="1" target-height="0.69999695" target-width="0.9000015" target-x="115.7" target-y="190.1"></path><path d="M 119.70 190.70 L 119.20 191.10 L 118.70 190.70 L 119.20 190.40 L 119.70 190.70 Z" fill="none" node-id="452" stroke="#ffffff" stroke-linecap="butt" stroke-width="1" target-height="0.7000122" target-width="1" target-x="118.7" target-y="190.4"></path><g node-id="1007"><path d="M 122.90 190.00 L 122.50 190.50 L 122.10 190.40 L 122.00 189.90 L 122.30 189.70 L 122.90 190.00 Z" fill="none" group-id="43" node-id="456" stroke="#ffffff" stroke-linecap="butt" stroke-width="0.99999994" target-height="0.80000305" target-width="0.9000015" target-x="122" target-y="189.7"></path></g><g node-id="1008"><path d="M 125.80 188.70 L 125.60 189.30 L 125.20 189.40 L 124.90 188.90 L 125.20 188.70 L 125.80 188.70 Z" fill="none" group-id="44" node-id="461" stroke="#ffffff" stroke-linecap="butt" stroke-width="1" target-height="0.69999695" target-width="0.9000015" target-x="124.9" target-y="188.7"></path></g><g node-id="1009"><path d="M 113.70 189.80 L 113.30 187.60 L 113.40 186.20 L 113.90 184.90 L 114.90 183.60" fill="none" group-id="45" node-id="466" stroke="#ffffff" stroke-linecap="round" stroke-width="1" target-height="6.199997" target-width="1.5999985" target-x="113.3" target-y="183.6"></path></g><g node-id="1010"><path d="M 116.20 190.50 L 114.70 186.30 L 114.60 184.80 L 114.90 183.60" fill="none" group-id="46" node-id="471" stroke="#ffffff" stroke-linecap="round" stroke-width="1" target-height="6.899994" target-width="1.5999985" target-x="114.6" target-y="183.6"></path></g><g node-id="1011"><path d="M 119.20 190.60 L 117.50 188.50 L 116.80 187.10 L 116.50 185.50 L 116.90 183.70" fill="none" group-id="47" node-id="476" stroke="#ffffff" stroke-linecap="round" stroke-width="1" target-height="6.900009" target-width="2.699997" target-x="116.5" target-y="183.7"></path></g><g node-id="1012"><path d="M 122.40 190.00 L 120.90 188.70 L 119.80 187.10 L 119.20 185.20 L 119.30 183.20" fill="none" group-id="48" node-id="481" stroke="#ffffff" stroke-linecap="round" stroke-width="1" target-height="6.800003" target-width="3.2000046" target-x="119.2" target-y="183.2"></path></g><g node-id="1013"><path d="M 125.30 188.90 L 123.40 187.40 L 122.40 186.10 L 121.60 184.60 L 121.20 182.70" fill="none" group-id="49" node-id="486" stroke="#ffffff" stroke-linecap="round" stroke-width="1" target-height="6.199997" target-width="4.100006" target-x="121.2" target-y="182.7"></path></g><g node-id="1014"><path d="M 113.70 189.80 L 114.10 187.40 L 114.60 186.00 L 115.50 184.70 L 116.90 183.70" fill="none" group-id="50" node-id="491" stroke="#ffffff" stroke-linecap="round" stroke-width="1" target-height="6.100006" target-width="3.2000046" target-x="113.7" target-y="183.7"></path></g><g node-id="1015"><path d="M 116.20 190.30 L 116.50 187.40 L 117.00 185.80 L 117.80 184.30 L 119.20 183.20" fill="none" group-id="51" node-id="496" stroke="#ffffff" stroke-linecap="round" stroke-width="1" target-height="7.100006" target-width="3" target-x="116.2" target-y="183.2"></path></g><g node-id="1016"><path d="M 119.20 190.70 L 119.60 185.90 L 120.20 184.20 L 121.30 182.70" fill="none" group-id="52" node-id="501" stroke="#ffffff" stroke-linecap="round" stroke-width="1" target-height="8" target-width="2.100006" target-x="119.2" target-y="182.7"></path></g><g node-id="1017"><path d="M 122.40 190.10 L 122.90 186.10 L 124.00 183.70" fill="none" group-id="53" node-id="506" stroke="#ffffff" stroke-linecap="round" stroke-width="1" target-height="6.400009" target-width="1.5999985" target-x="122.4" target-y="183.7"></path></g><path d="M 135.70 191.80 L 135.40 193.10 L 134.70 194.20 L 133.60 194.90 L 132.30 195.20 L 131.00 194.90 L 130.00 194.20 L 129.20 193.10 L 129.00 191.80 L 129.20 190.50 L 130.00 189.50 L 131.00 188.80 L 132.30 188.50 L 133.60 188.80 L 134.70 189.50 L 135.40 190.50 L 135.70 191.80 Z" fill="none" node-id="509" stroke="#ffffff" stroke-linecap="butt" stroke-width="1" target-height="6.699997" target-width="6.699997" target-x="129" target-y="188.5"></path><g node-id="1018"><path d="M 110.00 182.90 L 110.30 183.10 Z" fill="none" group-id="54" node-id="513" stroke="none" target-height="0.2000122" target-width="0.30000305" target-x="110" target-y="182.9"></path></g><g node-id="1019"><path d="M 109.50 182.80 L 109.90 182.90 Z" fill="none" group-id="55" node-id="518" stroke="none" target-height="0.099990845" target-width="0.40000153" target-x="109.5" target-y="182.8"></path></g><g node-id="1020"><path d="M 110.50 183.10 L 110.80 183.20 Z" fill="none" group-id="56" node-id="523" stroke="none" target-height="0.099990845" target-width="0.30000305" target-x="110.5" target-y="183.1"></path></g><g node-id="1022"><path d="M 111.40 183.50 L 111.90 183.80 Z" fill="none" group-id="58" node-id="533" stroke="none" target-height="0.30000305" target-width="0.5" target-x="111.4" target-y="183.5"></path></g><g node-id="1023"><path d="M 109.20 182.70 L 109.50 182.80 Z" fill="none" group-id="59" node-id="538" stroke="none" target-height="0.1000061" target-width="0.30000305" target-x="109.2" target-y="182.7"></path></g><g node-id="1025"><path d="M 108.80 182.60 L 109.00 182.60 Z" fill="none" group-id="61" node-id="548" stroke="none" target-height="0" target-width="0.19999695" target-x="108.8" target-y="182.6"></path></g><g node-id="1026"><path d="M 107.00 182.60 L 107.10 182.60 Z" fill="none" group-id="62" node-id="553" stroke="none" target-height="0" target-width="0.099998474" target-x="107" target-y="182.6"></path></g><g node-id="1027"><path d="M 107.20 182.50 L 107.30 182.50 Z" fill="none" group-id="63" node-id="558" stroke="none" target-height="0" target-width="0.1000061" target-x="107.2" target-y="182.5"></path></g><g node-id="1028"><path d="M 108.20 182.50 L 108.40 182.50 Z" fill="none" group-id="64" node-id="563" stroke="none" target-height="0" target-width="0.20000458" target-x="108.2" target-y="182.5"></path></g><g node-id="1029"><path d="M 108.50 182.50 L 108.70 182.50 Z" fill="none" group-id="65" node-id="568" stroke="none" target-height="0" target-width="0.19999695" target-x="108.5" target-y="182.5"></path></g><g node-id="1031"><path d="M 140.70 198.90 L 141.00 193.00 L 140.70 198.90 Z" fill="none" group-id="67" node-id="578" stroke="none" target-height="5.899994" target-width="0.30000305" target-x="140.7" target-y="193"></path></g><g node-id="1033"><path d="M 107.00 182.60 L 106.70 182.70 Z" fill="none" group-id="69" node-id="588" stroke="none" target-height="0.099990845" target-width="0.30000305" target-x="106.7" target-y="182.6"></path></g><g node-id="1034"><path d="M 108.10 182.50 L 107.60 182.50 Z" fill="none" group-id="70" node-id="593" stroke="none" target-height="0" target-width="0.5" target-x="107.6" target-y="182.5"></path></g><g node-id="1035"><path d="M 141.00 192.40 L 141.00 192.70 Z" fill="none" group-id="71" node-id="598" stroke="none" target-height="0.30000305" target-width="0" target-x="141" target-y="192.4"></path></g><g node-id="1036"><path d="M 140.70 198.90 L 140.00 199.80 L 137.80 200.60 L 133.40 200.30 L 118.50 196.10 L 115.50 194.90 L 112.80 193.40 L 110.20 191.50 L 107.20 188.30 L 106.00 186.20 L 105.80 184.80 L 106.10 183.30 L 106.70 182.70 L 105.80 182.60 L 104.30 183.10 L 102.10 186.00 L 101.90 188.20 L 102.20 189.30 L 103.70 192.20 L 106.30 195.60 L 108.40 197.40 L 111.20 199.20 L 115.80 201.10 L 122.60 202.50 L 126.50 203.60 L 133.40 206.20 L 136.50 206.30 L 138.00 205.90 L 140.00 204.60 L 140.70 202.80 L 140.70 198.90 Z" fill="#efe2ca" fill-rule="nonzero" group-id="72" node-id="603" stroke="none" target-height="23.699997" target-width="38.799995" target-x="101.9" target-y="182.6"></path></g><g node-id="1042"><path d="M 140.80 185.70 L 140.60 189.80 L 141.00 192.30 L 141.00 195.50 L 140.60 199.20 L 139.20 200.20 L 136.10 200.70 L 133.40 200.30 L 118.50 196.10 L 115.50 194.90 L 112.80 193.40 L 110.20 191.50 L 107.20 188.30 L 106.00 186.20 L 105.80 184.80 L 106.10 183.30 L 107.00 182.60 L 109.60 182.80 L 111.90 183.80" fill="none" group-id="78" node-id="633" stroke="#231815" stroke-linecap="butt" stroke-width="1" target-height="18.09999" target-width="35.199997" target-x="105.8" target-y="182.6"></path></g><g node-id="1043"><path d="M 136.30 204.40 L 133.10 204.00 L 125.20 201.40 L 117.90 200.00 L 114.20 198.80 L 110.70 197.00 L 110.90 196.70 L 114.30 198.50 L 118.00 199.70 L 125.30 201.10 L 131.50 203.20 L 134.50 203.80 L 138.00 203.70 L 139.60 203.20 L 140.80 202.30 L 140.70 203.00 L 139.80 203.70 L 138.80 204.10 L 136.30 204.40 Z" fill="#231815" fill-rule="nonzero" group-id="79" node-id="638" stroke="none" target-height="7.699997" target-width="30.100006" target-x="110.7" target-y="196.7"></path></g><g node-id="1044"><path d="M 75.90 13.20 L 82.10 4.90 L 84.20 2.80 L 86.60 1.00 L 85.40 0.30 L 84.00 0.00 L 82.70 0.40 L 78.40 5.20 L 75.40 9.20 L 72.00 14.80 L 71.40 17.60 L 71.50 19.10 L 72.00 17.40 L 72.80 16.00 L 75.90 13.20 Z" fill="#59b99f" fill-rule="nonzero" group-id="80" node-id="643" stroke="none" target-height="19.1" target-width="15.199997" target-x="71.4" target-y="0"></path></g><g node-id="1045"><path d="M 109.30 19.20 L 107.80 14.50 L 104.20 10.80 L 102.50 9.70 L 99.80 8.50 L 88.70 1.90 L 86.50 1.00 L 84.20 2.80 L 82.20 4.90 L 75.90 12.90 L 72.50 16.40 L 71.50 19.10 L 71.20 22.40 L 70.50 24.20 L 74.40 21.90 L 77.60 20.60 L 81.20 19.50 L 85.90 18.70 L 92.70 18.70 L 96.80 19.20 L 105.00 20.90 L 108.20 21.90 L 109.40 21.00 L 109.30 19.20 Z" fill="#4bb199" fill-rule="nonzero" group-id="81" node-id="648" stroke="none" target-height="23.2" target-width="38.9" target-x="70.5" target-y="1"></path></g><g node-id="1046"><path d="M 114.50 82.60 L 114.60 83.90 L 115.20 85.40 L 113.40 88.50 L 112.50 103.30 L 111.90 109.40 L 111.00 113.10 L 111.00 114.80 L 112.10 117.90 L 112.40 139.10 L 113.30 150.80 L 114.90 161.90 L 116.00 166.90 L 117.40 170.70 L 117.60 179.20 L 119.30 181.70 L 121.50 183.30 L 122.90 183.60 L 130.70 183.50 L 136.40 180.60 L 139.50 177.70 L 140.70 175.80 L 141.20 172.30 L 140.50 168.90 L 138.60 165.90 L 138.50 144.80 L 137.60 127.60 L 143.90 98.10 L 145.50 89.00 L 146.30 83.00 L 148.40 81.00 L 151.40 77.10 L 154.20 71.20 L 155.20 67.30 L 147.70 64.10 L 117.40 78.10 Z" fill="#f29e9a" fill-rule="nonzero" group-id="82" node-id="653" stroke="none" target-height="119.50001" target-width="44.199997" target-x="111" target-y="64.1"></path></g><g node-id="1047"><path d="M 155.40 67.00 L 154.70 70.00 L 152.30 75.60 L 148.70 80.50 L 146.50 82.70 L 140.70 114.20 L 141.70 119.90 L 142.60 122.20 L 144.30 125.20 L 146.80 127.00 L 148.90 127.70 L 153.50 128.00 L 156.50 127.50 L 157.90 126.90 L 168.10 117.40 L 175.70 112.20 L 181.60 106.50 L 184.90 103.90 L 184.60 102.80 L 184.20 102.50 L 182.30 103.10 L 181.20 102.70 L 178.70 101.10 L 177.30 99.60 L 175.70 97.30 L 174.40 94.60 L 173.20 90.60 L 171.50 87.40 L 170.80 85.20 L 170.50 82.70 L 170.80 80.00 L 171.40 78.20 L 172.40 76.40 L 174.10 74.50 L 169.90 76.70 L 168.30 78.30 L 166.20 81.80 L 164.90 73.40 L 164.20 70.80 L 164.00 65.20 L 160.30 64.90 L 155.90 65.50 Z" fill="#f29e9a" fill-rule="nonzero" group-id="83" node-id="658" stroke="none" target-height="63.1" target-width="44.199997" target-x="140.7" target-y="64.9"></path></g><g node-id="1048"><path d="M 112.30 117.60 L 115.90 115.80 L 122.30 111.40 L 127.90 105.80 L 130.30 102.70 L 133.20 98.10 L 137.90 88.50 L 141.20 78.40 L 142.30 73.10 L 140.70 73.90 L 134.70 88.70 L 129.40 98.60 L 123.90 106.10 L 119.20 110.50 L 116.50 112.20 L 113.90 113.10 L 111.20 113.50 L 111.50 115.60 L 112.30 117.60 Z" fill="#e5938b" fill-rule="nonzero" group-id="84" node-id="663" stroke="none" target-height="44.5" target-width="31.100006" target-x="111.2" target-y="73.1"></path></g><g node-id="1049"><path d="M 138.90 74.70 L 135.20 83.40 L 131.40 91.40 L 126.80 99.10 L 124.40 102.30 L 122.10 104.40 L 120.00 107.50 L 117.90 109.30 L 114.10 111.40 L 111.40 112.30 L 111.20 113.60 L 114.60 113.00 L 117.30 111.70 L 121.30 108.70 L 126.30 103.20 L 129.00 99.30 L 134.70 88.90 L 140.70 73.90 Z" fill="#ee9585" fill-rule="nonzero" group-id="85" node-id="668" stroke="none" target-height="39.699997" target-width="29.5" target-x="111.2" target-y="73.9"></path></g><g node-id="1050"><path d="M 117.60 77.80 L 114.70 82.30 L 114.80 83.50 L 115.50 84.80 L 115.20 85.80 L 113.70 88.20 L 116.00 89.00 L 119.30 89.20 L 122.10 88.10 L 127.70 81.70 L 131.10 78.60 L 134.60 76.40 L 138.20 75.90 L 139.40 75.20 L 140.30 74.10 L 140.80 75.50 L 141.30 76.00 L 142.10 76.20 L 143.40 75.90 L 148.10 72.10 L 148.60 72.60 L 148.40 73.90 L 146.40 82.70 L 150.60 76.00 L 154.40 67.20 Z" fill="#dc918d" fill-rule="nonzero" group-id="86" node-id="673" stroke="none" target-height="22" target-width="40.699997" target-x="113.7" target-y="67.2"></path></g><g node-id="1051"><path d="M 122.10 104.40 L 124.10 102.60 L 126.20 99.90 L 130.20 93.50 L 133.80 86.40 L 138.40 75.80 L 136.50 76.30 L 134.60 76.40 L 131.10 78.60 L 127.70 81.70 L 123.10 87.20 L 121.00 88.70 L 119.20 89.20 L 117.60 89.30 L 113.70 88.20 L 112.70 103.00 L 112.10 109.10 L 111.40 112.30 L 114.10 111.40 L 117.90 109.30 L 120.00 107.50 L 122.10 104.40 Z" fill="#e5938b" fill-rule="nonzero" group-id="87" node-id="678" stroke="none" target-height="36.5" target-width="26.999992" target-x="111.4" target-y="75.8"></path></g><g node-id="1052"><path d="M 154.20 71.40 L 156.90 69.00 L 159.40 66.30 L 158.40 66.40 L 156.00 69.00 L 154.60 70.10 L 154.20 71.40 Z" fill="#975b5b" fill-rule="nonzero" group-id="88" node-id="683" stroke="none" target-height="5.0999985" target-width="5.199997" target-x="154.2" target-y="66.3"></path></g><g node-id="1053"><path d="M 156.60 116.50 L 162.40 92.60 L 165.00 84.40 L 166.00 81.80 L 166.30 81.80 L 162.80 92.60 L 158.00 111.70 L 156.60 116.50 Z" fill="#d2867c" fill-rule="nonzero" group-id="89" node-id="688" stroke="none" target-height="34.699997" target-width="9.699997" target-x="156.6" target-y="81.8"></path></g><g node-id="1054"><path d="M 146.50 104.20 L 147.10 102.80 L 149.10 100.60 L 152.60 98.10 L 154.50 95.90 L 153.20 98.60 L 152.20 99.70 L 148.60 102.20 L 146.50 104.20 Z" fill="#d2867c" fill-rule="nonzero" group-id="90" node-id="693" stroke="none" target-height="8.299995" target-width="8" target-x="146.5" target-y="95.9"></path></g><g node-id="1055"><path d="M 152.00 102.00 L 149.70 106.80 L 149.60 105.40 L 150.10 104.00 L 152.00 102.00 Z" fill="#d2867c" fill-rule="nonzero" group-id="91" node-id="698" stroke="none" target-height="4.800003" target-width="2.399994" target-x="149.6" target-y="102"></path></g><g node-id="1056"><path d="M 145.80 111.50 L 147.50 106.80 L 148.80 104.50 L 149.80 103.60 L 151.10 103.20 L 148.30 107.10 L 146.00 111.60 Z" fill="#d2867c" fill-rule="nonzero" group-id="92" node-id="703" stroke="none" target-height="8.400002" target-width="5.300003" target-x="145.8" target-y="103.2"></path></g><g node-id="1057"><path d="M 144.90 125.60 L 145.10 123.90 L 146.30 120.10 L 146.60 120.20 L 144.90 125.60 Z" fill="#d2867c" fill-rule="nonzero" group-id="93" node-id="708" stroke="none" target-height="5.5" target-width="1.7000122" target-x="144.9" target-y="120.1"></path></g><g node-id="1058"><path d="M 149.20 105.60 L 146.70 107.20 L 144.70 109.40 L 146.30 106.80 L 148.70 104.70 Z" fill="#d2867c" fill-rule="nonzero" group-id="94" node-id="713" stroke="none" target-height="4.7000046" target-width="4.5" target-x="144.7" target-y="104.7"></path></g><g node-id="1059"><path d="M 166.60 82.20 L 162.30 89.00 L 158.50 96.00 L 155.20 103.30 L 158.20 95.80 L 161.80 88.60 L 165.80 81.60 Z" fill="#d2867c" fill-rule="nonzero" group-id="95" node-id="718" stroke="none" target-height="21.700005" target-width="11.400009" target-x="155.2" target-y="81.6"></path></g><g node-id="1060"><path d="M 161.20 90.40 L 158.10 93.30 L 155.30 96.60 L 152.50 101.40 L 151.60 104.00 L 150.70 110.30 L 149.40 115.20 L 148.20 117.80 L 146.40 120.70 L 145.60 118.30 L 145.70 112.40 L 145.80 116.30 L 146.70 119.90 L 146.20 119.90 L 147.50 117.40 L 149.30 112.10 L 150.20 105.80 L 151.70 101.00 L 154.80 96.10 L 156.70 94.00 L 161.20 90.40 Z" fill="#d2867c" fill-rule="nonzero" group-id="96" node-id="723" stroke="none" target-height="30.299995" target-width="15.599991" target-x="145.6" target-y="90.4"></path></g><g node-id="1061"><path d="M 155.40 67.00 L 154.60 70.10 L 156.00 69.10 L 158.50 66.40 Z" fill="#af6a66" fill-rule="nonzero" group-id="97" node-id="728" stroke="none" target-height="3.699997" target-width="3.899994" target-x="154.6" target-y="66.4"></path></g><g node-id="1062"><path d="M 144.50 109.70 L 144.70 107.50 L 146.70 103.10 L 148.10 101.10 L 153.60 95.00 L 155.40 92.20 L 158.70 85.50 L 164.30 70.90 L 164.10 65.20 L 160.40 64.90 L 156.00 65.50 L 153.70 72.80 L 152.40 75.50 L 148.80 80.50 L 146.60 82.60 L 140.80 114.20 L 141.80 119.90 L 142.70 122.10 L 144.90 125.60 L 145.00 117.60 L 144.50 109.70 Z" fill="#ed9490" fill-rule="nonzero" group-id="98" node-id="733" stroke="none" target-height="60.699997" target-width="23.5" target-x="140.8" target-y="64.9"></path></g><g node-id="1063"><path d="M 70.50 24.20 L 69.70 27.00 L 69.20 30.70 L 70.30 34.00 L 74.70 40.70 L 80.50 47.00 L 78.90 48.60 L 77.70 50.50 L 75.60 50.10 L 74.00 51.10 L 73.40 52.20 L 73.00 54.20 L 70.80 54.90 L 67.70 54.70 L 67.60 61.10 L 68.60 61.30 L 71.00 60.30 L 76.00 60.60 L 76.20 64.70 L 76.70 66.20 L 78.30 68.20 L 79.30 68.60 L 82.20 68.90 L 85.70 67.80 L 88.20 65.70 L 90.10 62.80 L 92.20 60.90 L 93.80 60.20 L 97.20 59.70 L 100.60 58.70 L 102.60 57.90 L 106.70 55.00 L 108.40 53.00 L 109.80 52.70 L 108.30 64.00 L 108.40 71.30 L 109.00 74.50 L 109.60 76.50 L 111.50 79.30 L 113.10 79.70 L 114.50 80.60 L 114.80 82.60 L 115.40 83.60 L 116.90 84.40 L 118.30 84.50 L 119.80 83.90 L 120.80 83.10 L 123.20 78.60 L 124.20 77.60 L 127.20 76.00 L 134.40 75.70 L 137.60 75.10 L 140.50 74.00 L 150.20 68.80 L 156.90 66.60 L 161.70 66.20 L 165.10 66.90 L 165.30 67.50 L 164.40 68.00 L 165.80 67.50 L 165.90 66.10 L 165.00 63.60 L 165.00 59.70 L 163.00 54.80 L 159.30 47.60 L 156.50 43.50 L 152.10 38.50 L 146.60 34.00 L 143.50 32.30 L 140.10 30.90 L 134.10 30.00 L 127.00 26.60 L 118.90 23.90 L 108.20 21.90 L 100.90 19.60 L 93.40 18.20 L 85.10 17.90 L 79.60 18.70 L 74.60 20.70 L 72.50 22.30 L 70.50 24.20 Z" fill="#84cab6" fill-rule="nonzero" group-id="99" node-id="738" stroke="none" target-height="66.6" target-width="98.299995" target-x="67.6" target-y="17.9"></path></g><g node-id="1064"><path d="M 70.50 24.20 L 73.50 28.50 L 78.60 37.80 L 77.80 39.10 L 77.70 40.60 L 77.00 36.70 L 76.30 35.30 L 70.10 25.60 Z" fill="#85c6ae" fill-rule="nonzero" group-id="100" node-id="743" stroke="none" target-height="16.399998" target-width="8.5" target-x="70.1" target-y="24.2"></path></g><g node-id="1065"><path d="M 114.50 62.40 L 113.60 66.40 L 112.90 64.10 L 112.90 55.90 L 112.00 51.50 L 109.90 46.70 L 109.80 39.90 L 105.90 33.80 L 105.30 33.30 L 102.00 33.30 L 99.60 32.90 L 97.20 31.90 L 94.20 31.30 L 89.30 31.40 L 86.00 32.30 L 83.50 33.50 L 81.30 35.10 L 78.60 37.80 L 81.10 35.00 L 83.20 33.40 L 86.70 31.70 L 89.00 31.10 L 91.30 30.80 L 94.10 31.00 L 103.70 32.30 L 105.70 33.20 L 110.30 39.80 L 110.10 46.20 L 110.40 47.50 L 112.50 51.90 L 113.20 55.10 L 113.50 59.90 L 114.50 62.40 Z" fill="#3f967e" fill-rule="nonzero" group-id="101" node-id="748" stroke="none" target-height="35.600002" target-width="35.9" target-x="78.6" target-y="30.8"></path></g><g node-id="1066"><path d="M 117.30 78.30 L 115.50 76.90 L 115.00 75.90 L 114.50 72.60 L 115.20 69.20 L 116.40 66.10 L 117.90 59.90 L 119.00 53.70 L 119.50 47.40 L 119.30 41.00 L 120.10 47.40 L 120.10 50.60 L 119.50 57.00 L 118.10 63.30 L 115.20 72.60 L 115.30 75.70 L 115.70 76.80 L 117.30 78.30 Z" fill="#6db498" fill-rule="nonzero" group-id="102" node-id="753" stroke="none" target-height="37.300003" target-width="5.5999985" target-x="114.5" target-y="41"></path></g><g node-id="1067"><path d="M 119.10 40.30 L 116.90 38.00 L 113.90 35.70 L 112.90 35.40 L 109.70 35.00 L 108.90 34.50 L 107.80 33.60 L 106.50 30.90 L 105.00 29.10 L 103.50 27.80 L 98.50 26.30 L 93.80 25.80 L 95.60 25.60 L 96.50 25.20 L 97.00 24.40 L 97.10 23.50 L 96.40 21.00 L 98.10 23.30 L 100.00 24.80 L 109.80 30.30 L 113.40 33.20 L 116.60 36.40 L 119.40 40.10 Z" fill="#42a59b" fill-rule="nonzero" group-id="103" node-id="758" stroke="none" target-height="19.3" target-width="25.599998" target-x="93.8" target-y="21"></path></g><g node-id="1068"><path d="M 165.00 59.70 L 163.00 58.90 L 160.70 58.60 L 158.40 58.70 L 156.20 59.20 L 147.60 62.20 L 137.50 67.10 L 132.70 69.90 L 124.50 75.80 L 119.60 78.90 L 115.30 78.70 L 113.80 78.10 L 111.80 76.70 L 109.30 73.40 L 108.30 70.40 L 109.30 75.60 L 110.20 77.70 L 111.50 79.20 L 113.10 79.60 L 114.50 80.50 L 114.70 82.50 L 115.40 83.50 L 116.90 84.20 L 118.20 84.30 L 119.80 83.80 L 120.80 82.90 L 123.20 78.40 L 124.10 77.40 L 127.10 75.90 L 134.40 75.60 L 137.50 75.10 L 140.50 74.00 L 150.20 68.80 L 156.90 66.60 L 159.30 66.30 L 164.10 66.50 L 165.30 67.20 L 164.40 68.00 L 165.40 67.80 L 166.00 67.00 L 164.90 63.60 L 165.00 59.70 Z" fill="#6bc2af" fill-rule="nonzero" group-id="104" node-id="763" stroke="none" target-height="25.700005" target-width="57.699997" target-x="108.3" target-y="58.6"></path></g><g node-id="1069"><path d="M 94.90 39.10 L 93.40 40.20 L 91.20 40.90 L 83.20 41.80 L 82.30 42.30 L 82.20 44.10 L 83.20 46.10 L 84.60 47.80 L 87.60 49.50 L 89.90 50.10 L 92.60 50.30 L 87.00 48.20 L 85.50 47.30 L 83.60 45.30 L 83.20 43.10 L 84.70 42.40 L 88.60 42.10 L 92.20 41.20 L 94.30 40.00 L 94.90 39.10 Z" fill="#135c53" fill-rule="nonzero" group-id="105" node-id="768" stroke="none" target-height="11.200001" target-width="12.700005" target-x="82.2" target-y="39.1"></path></g><g node-id="1070"><path d="M 75.90 60.50 L 75.70 58.60 L 74.90 55.80 L 75.10 55.40 L 75.70 55.30 L 76.30 55.90 L 76.30 59.20 L 75.90 60.50 Z" fill="#459281" fill-rule="nonzero" group-id="106" node-id="773" stroke="none" target-height="5.200001" target-width="1.4000015" target-x="74.9" target-y="55.3"></path></g><g node-id="1071"><path d="M 73.60 60.50 L 73.60 57.90 L 73.20 55.30 L 74.00 57.80 L 74.20 60.50 Z" fill="#459281" fill-rule="nonzero" group-id="107" node-id="778" stroke="none" target-height="5.200001" target-width="1" target-x="73.2" target-y="55.3"></path></g><g node-id="1072"><path d="M 78.30 56.40 L 76.80 53.20 L 77.00 50.70 L 75.40 50.90 L 74.60 51.80 L 75.90 52.70 L 77.80 57.60 L 78.60 61.50 L 79.00 65.50 L 79.30 66.00 L 79.80 66.10 L 80.20 65.10 L 79.80 62.10 L 78.30 56.40 Z" fill="#61b194" fill-rule="nonzero" group-id="108" node-id="783" stroke="none" target-height="15.399998" target-width="5.5999985" target-x="74.6" target-y="50.7"></path></g><path d="M 175.00 96.60 L 179.40 104.50 L 183.60 103.70 L 184.40 101.40 L 181.10 95.30 L 175.40 93.90 L 175.00 96.60 Z" fill="#ebc3a9" fill-rule="nonzero" node-id="786" stroke="none" target-height="10.599998" target-width="9.399994" target-x="175" target-y="93.9"></path><g node-id="1073"><path d="M 177.00 71.50 L 179.60 69.30 L 181.30 68.50 L 180.40 69.40 L 179.90 71.30 L 181.20 75.90 L 182.50 79.00 L 187.30 87.90 L 188.30 90.50 L 190.30 101.40 L 193.40 111.80 L 194.20 113.70 L 195.50 115.40 L 196.30 115.90 L 197.30 115.80 L 195.30 116.20 L 192.70 115.70 L 191.40 114.80 L 190.60 113.80 L 188.70 110.50 L 185.70 102.70 L 181.00 93.00 L 177.80 85.60 L 176.70 81.80 L 176.10 78.20 L 176.00 75.80 L 177.00 71.50 Z" fill="#efe2ca" fill-rule="nonzero" group-id="109" node-id="790" stroke="none" target-height="47.699997" target-width="21.300003" target-x="176" target-y="68.5"></path></g><g node-id="1074"><path d="M 177.00 71.50 L 169.60 79.20 L 170.30 88.30 L 171.80 93.50 L 173.30 97.00 L 177.10 96.30 L 178.50 96.70 L 179.70 97.60 L 182.60 101.70 L 184.60 103.80 L 186.50 104.90 L 185.00 100.40 L 184.10 95.90 L 182.70 91.00 L 177.70 79.40 L 177.00 76.80 L 176.80 74.20 L 177.00 71.50 Z" fill="#d9617c" fill-rule="nonzero" group-id="110" node-id="795" stroke="none" target-height="33.4" target-width="16.899994" target-x="169.6" target-y="71.5"></path></g><path d="M 179.10 86.80 L 178.90 87.20 L 178.20 87.20 L 178.20 86.40 L 178.90 86.40 L 179.10 86.80 Z" fill="none" node-id="798" stroke="#b1b1b2" stroke-linecap="butt" stroke-width="1" target-height="0.7999954" target-width="0.90000916" target-x="178.2" target-y="86.4"></path><path d="M 181.50 92.00 L 181.00 92.60 L 180.50 92.00 L 181.00 91.50 L 181.50 92.00 Z" fill="none" node-id="800" stroke="#b1b1b2" stroke-linecap="butt" stroke-width="1" target-height="1.0999985" target-width="1" target-x="180.5" target-y="91.5"></path><g node-id="1075"><path d="M 181.70 97.30 L 181.30 97.40 L 180.90 97.00 L 181.00 96.60 L 181.70 97.30 Z" fill="none" group-id="111" node-id="804" stroke="#ffffff" stroke-linecap="butt" stroke-width="1" target-height="0.80000305" target-width="0.80000305" target-x="180.9" target-y="96.6"></path></g><g node-id="1076"><path d="M 179.30 95.00 L 178.90 95.00 L 178.50 94.60 L 178.60 94.30 L 179.30 95.00 Z" fill="none" group-id="112" node-id="809" stroke="#ffffff" stroke-linecap="butt" stroke-width="1" target-height="0.69999695" target-width="0.80000305" target-x="178.5" target-y="94.3"></path></g><g node-id="1077"><path d="M 176.80 92.60 L 176.30 92.60 L 176.00 92.20 L 176.10 91.90 L 176.80 92.60 Z" fill="none" group-id="113" node-id="814" stroke="#ffffff" stroke-linecap="butt" stroke-width="1" target-height="0.69999695" target-width="0.80000305" target-x="176" target-y="91.9"></path></g><g node-id="1078"><path d="M 181.30 97.10 L 180.60 99.00" fill="none" group-id="114" node-id="819" stroke="#ffffff" stroke-linecap="round" stroke-width="1" target-height="1.9000015" target-width="0.69999695" target-x="180.6" target-y="97.1"></path></g><g node-id="1079"><path d="M 178.90 94.70 L 178.40 96.50" fill="none" group-id="115" node-id="824" stroke="#ffffff" stroke-linecap="round" stroke-width="1" target-height="1.800003" target-width="0.5" target-x="178.4" target-y="94.7"></path></g><g node-id="1080"><path d="M 176.30 92.40 L 176.40 94.90 L 176.10 96.30" fill="none" group-id="116" node-id="829" stroke="#ffffff" stroke-linecap="round" stroke-width="1" target-height="3.9000015" target-width="0.2999878" target-x="176.1" target-y="92.4"></path></g><g node-id="1081"><path d="M 186.80 98.50 L 186.50 98.50 L 186.50 95.10 L 185.20 89.30 L 184.20 87.00 L 180.00 79.70 L 178.60 75.80 L 178.40 73.10 L 178.50 71.40 L 178.90 69.80 L 179.30 69.60 L 178.70 72.50 L 178.80 74.80 L 179.40 77.30 L 180.70 80.40 L 183.70 85.10 L 185.80 90.20 L 186.80 95.70 L 186.80 98.50 Z" fill="#231815" fill-rule="nonzero" group-id="117" node-id="834" stroke="none" target-height="28.900002" target-width="8.400009" target-x="178.4" target-y="69.6"></path></g><g node-id="1082"><path d="M 197.20 115.80 L 198.90 114.40 L 199.80 112.40 L 200.50 110.00 L 200.90 105.80 L 200.80 101.50 L 200.00 97.40 L 198.70 93.40 L 196.90 89.50 L 194.50 85.80 L 192.30 81.70 L 188.50 73.10 L 186.90 70.80 L 185.30 69.20 L 184.10 68.40 L 182.10 68.20 L 180.80 68.80 L 180.10 70.20 L 180.20 72.60 L 182.40 78.50 L 187.40 87.80 L 188.30 90.40 L 190.30 101.40 L 193.30 111.80 L 194.10 113.70 L 195.40 115.40 L 196.30 115.90 L 197.20 115.80 Z" fill="#4f3d31" fill-rule="nonzero" group-id="118" node-id="839" stroke="none" target-height="47.700005" target-width="20.799988" target-x="180.1" target-y="68.2"></path></g><g node-id="1083"><path d="M 92.30 99.50 L 90.00 98.20 L 86.80 97.30 L 83.00 96.70 L 81.00 93.30 L 78.60 90.10 L 77.70 89.30 L 76.20 89.10 L 75.00 89.60 L 65.70 96.40 L 64.60 97.60 L 63.40 100.70 L 63.70 104.10 L 67.20 103.20 L 73.40 100.60 L 81.00 96.50 L 81.60 96.50 L 81.60 97.10 L 78.70 100.40 L 74.60 103.40 L 72.20 104.80 L 68.00 106.30 L 64.90 106.30 L 65.40 106.90 L 63.40 109.40 L 62.50 111.50 L 62.50 112.30 L 63.00 112.90 L 64.30 113.30 L 68.60 113.00 L 73.10 111.60 L 78.60 107.90 L 86.30 105.50 L 93.40 101.60 L 93.50 101.00 L 92.30 99.50 Z" fill="#f5c21e" fill-rule="nonzero" group-id="119" node-id="844" stroke="none" target-height="24.200005" target-width="31" target-x="62.5" target-y="89.1"></path></g><path d="M 40.40 95.20 L 46.00 99.80 L 46.00 119.20 L 40.80 112.60 L 40.40 95.20 Z" fill="#d03433" fill-rule="nonzero" node-id="847" stroke="none" target-height="24" target-width="5.5999985" target-x="40.4" target-y="95.2"></path><path d="M 46.00 119.20 L 69.00 116.60 L 69.00 99.60 L 46.00 99.80 L 46.00 119.20 Z" fill="#c01f32" fill-rule="nonzero" node-id="849" stroke="none" target-height="19.599998" target-width="23" target-x="46" target-y="99.6"></path><path d="M 40.40 95.20 L 63.00 94.80 L 69.00 99.60 L 46.00 99.80 L 40.40 95.20 Z" fill="#c03345" fill-rule="nonzero" node-id="851" stroke="none" target-height="5" target-width="28.599998" target-x="40.4" target-y="94.8"></path><g node-id="1084"><path d="M 63.30 89.20 L 61.40 89.40 L 58.10 90.90 L 53.70 94.70 L 57.70 95.50 L 60.20 95.60 L 62.20 95.30 L 63.80 94.30 L 65.40 91.80 L 65.60 90.90 L 65.40 90.10 L 64.80 89.50 L 63.30 89.20 Z M 62.30 93.50 L 60.60 94.10 L 57.50 93.70 L 59.80 91.70 L 62.10 91.10 L 63.00 91.30 L 63.20 91.70 L 62.30 93.50 Z" fill="url(#未命名的渐变_117)" fill-rule="nonzero" group-id="120" node-id="855" stroke="none" target-height="6.4000015" target-width="11.899998" target-x="53.7" target-y="89.2"></path></g><path d="M 56.40 98.30 L 61.70 102.80 L 66.60 99.80 L 56.40 95.00 L 56.40 98.30 Z" fill="url(#未命名的渐变_117-2)" fill-rule="nonzero" node-id="858" stroke="none" target-height="7.800003" target-width="10.199997" target-x="56.4" target-y="95"></path><g node-id="1085"><path d="M 51.80 98.10 L 49.70 102.20 L 52.10 102.50 L 53.80 103.80 L 55.50 100.80 L 56.40 98.50 L 56.30 96.70 L 55.90 96.40 L 54.90 96.60 L 51.80 98.10 Z" fill="url(#未命名的渐变_117-3)" fill-rule="nonzero" group-id="121" node-id="862" stroke="none" target-height="7.4000015" target-width="6.700001" target-x="49.7" target-y="96.4"></path></g><g node-id="1086"><path d="M 57.30 95.30 L 54.70 93.70 L 52.20 91.30 L 48.80 89.80 L 47.00 89.60 L 45.40 89.90 L 44.20 91.20 L 44.20 92.50 L 44.80 94.20 L 46.40 96.30 L 47.80 97.20 L 49.40 97.80 L 51.80 98.10 L 54.80 97.80 L 56.20 97.30 L 57.10 96.60 L 57.30 95.30 Z M 50.90 95.40 L 47.50 93.50 L 47.00 92.70 L 47.30 91.70 L 48.80 91.90 L 50.20 92.60 L 52.20 94.20 L 53.00 95.40 L 50.90 95.40 Z" fill="url(#未命名的渐变_117-4)" fill-rule="nonzero" group-id="122" node-id="867" stroke="none" target-height="8.5" target-width="13.099998" target-x="44.2" target-y="89.6"></path></g><path d="M 55.10 101.50 L 55.50 118.20 L 60.20 117.60 L 59.00 100.50 L 58.00 99.60 L 56.00 99.70 L 55.10 101.50 Z" fill="url(#未命名的渐变_117-5)" fill-rule="nonzero" node-id="870" stroke="none" target-height="18.599998" target-width="5.1000023" target-x="55.1" target-y="99.6"></path><path d="M 56.40 98.30 L 56.00 99.70 L 58.00 99.60 L 56.40 98.30 Z" fill="#c76218" fill-rule="nonzero" node-id="872" stroke="none" target-height="1.3999939" target-width="2" target-x="56" target-y="98.3"></path><path d="M 55.50 103.60 L 59.20 106.60 L 59.20 119.40 L 55.80 115.10 L 55.50 103.60 Z" fill="#d03433" fill-rule="nonzero" node-id="874" stroke="none" target-height="15.800003" target-width="3.7000008" target-x="55.5" target-y="103.6"></path><path d="M 59.20 119.40 L 74.30 117.70 L 74.30 106.50 L 59.20 106.60 L 59.20 119.40 Z" fill="#c01f32" fill-rule="nonzero" node-id="876" stroke="none" target-height="12.900002" target-width="15.100002" target-x="59.2" target-y="106.5"></path><path d="M 55.50 103.60 L 70.40 103.40 L 74.30 106.50 L 59.20 106.60 L 55.50 103.60 Z" fill="#c03345" fill-rule="nonzero" node-id="878" stroke="none" target-height="3.199997" target-width="18.800003" target-x="55.5" target-y="103.4"></path><g node-id="1087"><path d="M 70.50 99.70 L 68.90 99.90 L 67.50 100.60 L 64.20 103.20 L 66.90 103.80 L 69.80 103.70 L 70.90 103.00 L 71.90 101.40 L 72.10 100.60 L 71.50 99.90 L 70.50 99.70 Z M 69.90 102.50 L 68.60 102.90 L 66.80 102.60 L 68.30 101.30 L 69.80 100.90 L 70.50 101.30 L 69.90 102.50 Z" fill="url(#未命名的渐变_117-6)" fill-rule="nonzero" group-id="123" node-id="882" stroke="none" target-height="4.100006" target-width="7.9000015" target-x="64.2" target-y="99.7"></path></g><path d="M 66.00 105.60 L 69.50 108.60 L 72.70 106.60 L 66.00 103.50 L 66.00 105.60 Z" fill="url(#未命名的渐变_117-7)" fill-rule="nonzero" node-id="885" stroke="none" target-height="5.0999985" target-width="6.699997" target-x="66" target-y="103.5"></path><g node-id="1088"><path d="M 63.00 105.50 L 61.60 108.30 L 62.60 108.30 L 64.30 109.30 L 65.90 106.30 L 66.00 104.60 L 65.00 104.50 L 63.00 105.50 Z" fill="url(#未命名的渐变_117-8)" fill-rule="nonzero" group-id="124" node-id="889" stroke="none" target-height="4.800003" target-width="4.4000015" target-x="61.6" target-y="104.5"></path></g><g node-id="1089"><path d="M 66.60 103.70 L 62.90 100.80 L 61.50 100.20 L 59.80 100.00 L 58.80 100.10 L 58.00 100.90 L 58.00 101.80 L 58.80 103.60 L 59.70 104.50 L 61.00 105.20 L 63.00 105.50 L 64.90 105.30 L 66.50 104.50 L 66.60 103.70 Z M 62.40 103.70 L 60.20 102.50 L 59.90 101.90 L 60.10 101.30 L 61.90 101.90 L 63.20 103.00 L 63.80 103.70 L 62.40 103.70 Z" fill="url(#未命名的渐变_117-9)" fill-rule="nonzero" group-id="125" node-id="894" stroke="none" target-height="5.5" target-width="8.599998" target-x="58" target-y="100"></path></g><path d="M 65.20 107.80 L 65.40 118.70 L 68.50 118.30 L 67.70 107.10 L 67.10 106.50 L 65.80 106.50 L 65.20 107.80 Z" fill="url(#未命名的渐变_117-10)" fill-rule="nonzero" node-id="897" stroke="none" target-height="12.199997" target-width="3.300003" target-x="65.2" target-y="106.5"></path><path d="M 66.00 105.70 L 65.80 106.50 L 67.10 106.50 L 66.00 105.70 Z" fill="#c76218" fill-rule="nonzero" node-id="899" stroke="none" target-height="0.80000305" target-width="1.2999954" target-x="65.8" target-y="105.7"></path><g node-id="1090"><path d="M 114.70 82.30 L 114.50 80.50 L 113.10 79.60 L 110.80 84.20 L 106.10 85.40 L 108.40 80.80 L 112.60 79.40 L 111.50 79.20 L 108.80 79.90 L 110.00 77.40 L 109.70 76.60 L 107.90 80.20 L 105.40 80.80 L 108.10 75.80 L 109.20 75.50 L 109.00 74.80 L 108.50 74.90 L 108.90 74.20 L 108.70 73.40 L 107.60 75.20 L 105.40 75.80 L 107.60 71.60 L 108.40 71.40 L 108.30 70.70 L 108.10 70.80 L 108.20 69.10 L 107.20 71.00 L 104.90 71.60 L 107.00 67.70 L 108.20 67.30 L 108.20 66.50 L 107.40 66.80 L 108.20 65.20 L 108.30 63.80 L 106.50 67.00 L 104.10 67.60 L 106.20 63.60 L 108.30 63.20 L 108.40 62.40 L 106.60 62.80 L 108.80 58.80 L 109.10 56.10 L 88.70 59.10 L 90.80 57.20 L 95.20 54.90 L 109.90 52.60 L 110.60 51.30 L 110.50 50.60 L 110.10 50.10 L 108.80 49.50 L 93.40 51.70 L 91.00 52.60 L 87.10 55.40 L 84.70 58.30 L 83.60 60.30 L 19.10 57.50 L 44.80 54.30 L 45.40 51.60 L 5.50 56.90 L 6.20 65.00 L 7.20 71.40 L 8.60 77.50 L 10.40 83.30 L 12.60 88.80 L 17.60 98.20 L 23.10 105.90 L 29.60 112.90 L 38.10 119.70 L 43.20 123.10 L 48.60 126.00 L 43.00 129.20 L 40.60 131.30 L 38.60 133.80 L 37.60 135.70 L 36.60 140.20 L 41.70 140.50 L 42.10 138.40 L 42.90 136.50 L 44.20 134.90 L 46.60 132.80 L 49.60 131.20 L 55.60 129.00 L 60.90 132.20 L 64.30 135.00 L 67.80 138.40 L 71.90 143.30 L 76.30 150.00 L 28.10 162.30 L 24.30 163.80 L 20.70 165.70 L 15.50 169.70 L 11.70 174.40 L 9.30 179.90 L 8.30 186.30 L 13.40 186.50 L 13.80 183.00 L 14.70 179.90 L 16.10 177.10 L 17.90 174.60 L 20.20 172.20 L 23.20 170.10 L 26.30 168.50 L 29.50 167.20 L 78.80 154.50 L 81.30 160.00 L 83.80 166.60 L 85.90 173.60 L 88.80 187.60 L 90.10 200.90 L 95.20 200.60 L 93.70 186.40 L 91.30 174.20 L 88.20 163.90 L 85.50 156.80 L 82.70 151.10 L 112.10 129.50 L 112.00 125.30 L 81.00 148.10 L 75.60 139.90 L 71.90 135.40 L 67.70 131.20 L 63.20 127.50 L 112.00 119.50 L 112.00 118.00 L 111.00 114.30 L 77.30 119.90 L 100.70 109.20 L 101.90 108.40 L 111.10 112.60 L 111.80 109.50 L 103.70 105.50 L 114.50 84.00 Z M 107.50 81.00 L 105.20 85.60 L 102.50 86.30 L 105.00 81.60 Z M 49.20 88.40 L 41.40 94.20 L 39.50 91.00 L 37.90 87.60 L 46.70 83.10 L 49.20 88.40 Z M 47.60 82.60 L 55.30 78.80 L 57.00 82.50 L 50.00 87.70 L 47.60 82.60 Z M 49.40 88.60 L 51.60 92.10 L 54.20 95.30 L 48.20 102.30 L 43.60 97.30 L 41.60 94.50 Z M 50.20 88.00 L 57.20 82.80 L 60.70 87.80 L 54.90 94.50 L 52.40 91.40 L 50.20 88.00 Z M 60.80 88.10 L 65.20 92.30 L 61.00 99.70 L 57.90 97.40 L 55.10 94.80 Z M 65.50 92.50 L 69.30 94.80 L 66.30 102.20 L 61.40 99.90 Z M 78.80 98.30 L 82.00 97.30 L 79.90 101.30 L 76.60 102.50 Z M 75.60 102.80 L 73.20 103.60 L 75.40 99.40 L 77.80 98.60 Z M 89.60 90.20 L 91.70 89.60 L 89.30 94.20 L 87.10 94.90 Z M 86.10 95.20 L 83.40 96.10 L 86.10 91.00 L 88.70 90.40 Z M 90.00 89.30 L 92.30 85.00 L 94.40 84.40 L 92.10 88.80 Z M 91.90 84.40 L 89.20 85.10 L 91.90 80.10 L 94.50 79.40 Z M 91.40 85.20 L 89.20 89.60 L 86.50 90.20 L 88.80 86.00 Z M 85.60 90.50 L 82.50 91.30 L 84.70 87.10 L 87.80 86.30 Z M 85.20 91.30 L 82.40 96.50 L 79.20 97.50 L 82.10 92.10 Z M 82.90 97.10 L 85.70 96.20 L 83.70 100.00 L 80.80 101.00 Z M 86.60 95.90 L 88.80 95.20 L 86.80 98.90 L 84.50 99.70 Z M 89.70 94.90 L 92.30 94.00 L 90.40 97.50 L 87.80 98.50 Z M 90.10 94.00 L 92.50 89.50 L 95.00 88.90 L 92.70 93.20 Z M 93.00 88.70 L 95.30 84.30 L 97.80 83.60 L 95.40 88.00 Z M 94.80 83.70 L 92.70 84.20 L 95.40 79.20 L 97.50 78.70 Z M 94.90 78.70 L 92.30 79.40 L 94.60 75.10 L 97.20 74.40 Z M 91.40 79.70 L 88.20 80.50 L 90.60 76.10 L 93.70 75.30 Z M 90.90 80.50 L 88.30 85.50 L 85.20 86.30 L 87.80 81.30 Z M 84.30 86.60 L 81.80 87.20 L 84.40 82.20 L 86.90 81.50 Z M 83.80 87.40 L 81.60 91.60 L 79.30 92.20 L 81.40 88.00 Z M 81.20 92.40 L 78.30 97.80 L 75.90 98.50 L 78.90 92.90 Z M 75.00 98.90 L 72.20 99.80 L 75.20 93.80 L 78.00 93.20 Z M 74.50 99.80 L 72.30 104.10 L 69.40 105.10 L 71.70 100.70 Z M 69.00 104.40 L 70.40 101.10 L 70.80 101.00 Z M 71.80 105.00 L 69.50 109.40 L 66.40 110.60 L 67.40 108.40 L 67.70 108.50 L 69.00 106.00 Z M 72.70 104.70 L 75.10 103.80 L 72.90 108.10 L 70.50 109.00 Z M 76.10 103.50 L 79.40 102.30 L 77.20 106.40 L 73.90 107.70 Z M 80.30 102.00 L 83.20 101.00 L 81.10 104.90 L 78.20 106.00 Z M 84.10 100.60 L 86.30 99.80 L 84.30 103.50 L 82.10 104.40 Z M 87.30 99.50 L 89.90 98.50 L 88.00 102.20 L 85.30 103.20 Z M 90.90 98.20 L 93.20 97.40 L 91.30 101.00 L 89.00 101.80 Z M 91.40 97.30 L 93.20 93.80 L 95.40 93.10 L 93.60 96.50 Z M 93.70 93.00 L 95.90 88.70 L 98.10 88.20 L 95.90 92.20 Z M 96.30 87.90 L 98.70 83.40 L 100.90 82.80 L 98.50 87.40 Z M 98.20 82.90 L 95.70 83.60 L 98.40 78.60 L 100.90 77.90 Z M 97.90 77.90 L 95.80 78.50 L 98.10 74.20 L 100.20 73.60 Z M 97.70 73.60 L 95.00 74.30 L 97.20 70.10 L 99.80 69.50 Z M 94.10 74.50 L 91.00 75.30 L 93.20 71.10 L 96.30 70.30 Z M 90.10 75.50 L 87.60 76.20 L 89.80 71.90 L 92.30 71.30 Z M 89.70 76.30 L 87.30 80.70 L 84.80 81.40 L 87.10 77.00 Z M 83.90 81.60 L 81.10 82.40 L 83.40 78.00 L 86.20 77.20 Z M 83.50 82.50 L 80.90 87.50 L 78.20 88.20 L 80.70 83.30 Z M 80.50 88.20 L 78.40 92.30 L 75.70 93.00 L 77.70 89.00 Z M 74.80 93.20 L 73.60 93.50 L 75.20 89.70 L 76.90 89.20 Z M 74.30 94.10 L 71.20 100.10 L 70.80 100.20 L 73.20 94.30 Z M 69.70 94.10 L 66.00 91.80 L 71.10 82.90 L 73.50 84.90 Z M 69.00 110.30 L 67.00 114.00 L 64.50 115.10 L 66.00 111.40 Z M 70.00 109.90 L 72.40 109.00 L 70.50 112.50 L 68.10 113.50 Z M 73.30 108.50 L 76.70 107.20 L 74.80 110.70 L 71.40 112.10 Z M 77.70 106.90 L 80.60 105.70 L 78.80 109.10 L 75.80 110.30 Z M 81.50 105.40 L 83.80 104.50 L 82.10 107.70 L 79.80 108.70 Z M 84.80 104.10 L 87.50 103.10 L 85.90 106.20 L 83.10 107.30 Z M 88.50 102.70 L 90.70 101.80 L 89.20 104.80 L 86.80 105.80 Z M 91.70 101.40 L 94.20 100.40 L 92.70 103.30 L 90.10 104.30 Z M 92.20 100.50 L 94.10 97.00 L 96.50 96.10 L 94.70 99.50 Z M 94.50 96.10 L 96.30 92.70 L 98.70 92.00 L 97.00 95.30 Z M 96.80 91.90 L 98.90 87.90 L 101.20 87.30 L 99.20 91.10 Z M 99.40 87.10 L 101.80 82.50 L 104.00 81.90 L 101.60 86.50 Z M 101.40 81.90 L 99.10 82.50 L 101.80 77.50 L 104.10 76.90 Z M 101.40 76.90 L 98.90 77.60 L 101.10 73.40 L 103.60 72.70 Z M 100.70 72.80 L 98.60 73.30 L 100.70 69.20 L 102.80 68.80 Z M 100.30 68.60 L 97.60 69.30 L 99.80 65.10 L 102.40 64.60 Z M 96.80 69.50 L 93.70 70.20 L 96.00 66.00 L 99.00 65.30 Z M 92.80 70.50 L 90.30 71.10 L 92.50 66.70 L 95.10 66.20 Z M 89.40 71.30 L 86.60 72.00 L 88.90 67.50 L 91.70 66.90 Z M 89.00 72.10 L 86.70 76.50 L 83.90 77.20 L 86.20 72.80 Z M 83.00 77.40 L 80.10 78.20 L 81.90 73.80 L 85.30 73.00 Z M 82.60 78.20 L 80.20 82.70 L 77.90 83.30 L 79.70 79.00 Z M 79.80 83.50 L 77.30 88.30 L 75.60 88.80 L 77.60 84.00 Z M 73.90 83.80 L 71.60 81.90 L 74.70 76.40 L 76.30 77.90 Z M 71.30 81.50 L 69.00 78.60 L 72.90 74.00 L 74.50 76.00 Z M 70.80 82.50 L 65.70 91.50 L 61.50 87.40 L 68.30 79.50 L 70.80 82.50 Z M 61.30 87.10 L 58.10 82.20 L 66.30 76.10 L 68.10 79.10 Z M 57.90 81.90 L 56.20 78.30 L 65.10 73.70 L 66.10 75.70 Z M 56.10 78.00 L 54.60 73.30 L 63.70 70.30 L 65.00 73.40 Z M 54.50 73.00 L 53.40 67.90 L 62.50 66.80 L 63.60 70.00 Z M 53.80 74.50 L 55.20 78.40 L 47.60 82.30 L 45.60 76.30 L 53.60 73.60 L 53.80 74.50 Z M 46.60 82.80 L 37.80 87.30 L 35.10 79.70 L 44.60 76.60 L 46.60 82.80 Z M 36.90 87.80 L 28.70 92.00 L 24.70 83.20 L 34.10 80.00 L 36.80 87.80 Z M 37.00 88.10 L 40.60 94.80 L 33.60 100.10 L 28.80 92.30 Z M 40.80 95.10 L 42.80 97.90 L 47.60 103.10 L 42.00 109.50 L 36.30 103.60 L 33.80 100.40 Z M 47.80 103.30 L 50.40 105.30 L 55.90 108.80 L 51.70 116.30 L 45.30 112.10 L 42.30 109.70 Z M 48.50 102.50 L 54.50 95.50 L 57.40 98.20 L 60.60 100.50 L 56.30 107.90 L 52.20 105.50 L 48.40 102.50 Z M 60.90 100.70 L 65.90 103.10 L 62.90 110.40 L 56.70 108.00 Z M 64.30 115.40 L 64.50 115.70 L 66.60 114.90 L 64.30 119.20 L 62.40 120.10 Z M 67.50 114.40 L 70.00 113.40 L 67.70 117.70 L 65.30 118.80 Z M 70.90 113.00 L 74.40 111.60 L 72.20 115.70 L 68.70 117.20 Z M 75.30 111.20 L 78.30 110.00 L 76.30 113.80 L 73.30 115.20 Z M 79.30 109.60 L 81.60 108.60 L 79.60 112.30 L 77.30 113.40 Z M 82.60 108.20 L 85.40 107.00 L 83.50 110.60 L 80.60 111.90 Z M 86.40 106.60 L 88.70 105.60 L 86.80 109.10 L 84.50 110.10 Z M 89.60 105.30 L 92.20 104.30 L 90.50 107.50 L 87.90 108.70 Z M 93.20 103.80 L 96.80 102.30 L 95.30 105.30 L 91.50 107.00 Z M 93.70 102.90 L 95.20 100.00 L 98.60 98.70 L 97.30 101.40 Z M 95.70 99.10 L 97.40 95.70 L 100.60 94.60 L 99.00 97.80 Z M 97.90 94.90 L 99.60 91.60 L 102.60 90.70 L 101.10 93.70 Z M 100.10 90.80 L 102.10 87.00 L 104.80 86.40 L 103.00 89.80 Z M 107.20 76.00 L 104.50 81.00 L 102.20 81.60 L 104.90 76.60 Z M 106.70 71.80 L 104.50 76.00 L 102.20 76.60 L 104.40 72.40 Z M 106.10 67.80 L 104.00 71.80 L 101.50 72.40 L 103.60 68.40 Z M 103.20 67.80 L 101.10 68.40 L 103.30 64.30 L 105.30 63.80 Z M 107.80 59.00 L 105.70 63.10 L 103.70 63.50 L 105.90 59.40 Z M 105.00 59.50 L 102.80 63.70 L 100.20 64.20 L 102.50 59.90 Z M 101.60 60.10 L 99.30 64.40 L 96.30 65.10 L 98.70 60.60 Z M 97.80 60.80 L 95.40 65.30 L 92.90 65.80 L 95.30 61.20 Z M 94.50 61.40 L 92.00 66.00 L 89.20 66.60 L 91.70 61.80 Z M 86.50 62.80 L 90.90 62.00 L 88.40 66.80 L 84.40 67.60 Z M 84.10 68.40 L 88.00 67.60 L 85.70 72.10 L 82.20 72.90 Z M 82.60 62.60 L 77.30 75.50 L 75.30 73.10 L 73.80 70.70 L 72.40 65.80 L 72.10 62.10 Z M 72.70 73.70 L 68.80 78.30 L 67.10 75.40 L 71.70 71.90 L 72.70 73.70 Z M 71.60 71.60 L 66.90 75.10 L 66.00 73.20 L 71.20 70.60 L 71.60 71.60 Z M 71.00 70.30 L 65.90 72.90 L 64.60 69.90 L 70.30 68.00 L 71.10 70.30 Z M 70.30 67.70 L 64.50 69.60 L 63.50 66.60 L 69.90 65.80 L 70.30 67.80 Z M 69.60 62.00 L 69.90 65.50 L 63.40 66.30 L 62.20 61.70 Z M 61.10 61.70 L 62.40 66.50 L 53.30 67.60 L 52.80 61.30 Z M 53.40 73.30 L 45.40 75.90 L 43.90 69.10 L 52.40 68.10 L 53.50 73.30 Z M 51.70 61.30 L 52.30 67.70 L 43.90 68.70 L 43.00 60.90 Z M 44.40 76.30 L 34.90 79.40 L 33.80 75.00 L 33.00 70.40 L 42.90 69.20 L 44.40 76.30 Z M 42.00 60.90 L 42.80 68.90 L 33.00 70.10 L 32.20 60.40 Z M 33.90 79.80 L 24.50 82.90 L 21.20 71.90 L 32.00 70.50 L 34.00 79.80 Z M 31.20 60.40 L 31.90 70.20 L 21.10 71.60 L 19.10 59.90 Z M 8.00 59.40 L 18.00 59.80 L 20.00 71.70 L 9.90 73.00 L 8.70 66.20 L 8.10 59.40 Z M 10.00 73.30 L 20.10 72.00 L 23.50 83.20 L 14.10 86.30 L 11.80 79.90 L 10.10 73.30 Z M 14.30 86.60 L 23.70 83.50 L 27.70 92.50 L 19.50 96.60 L 16.70 91.70 L 14.30 86.60 Z M 19.70 96.90 L 27.80 92.80 L 32.80 100.80 L 26.10 105.80 L 22.70 101.50 L 19.70 96.90 Z M 34.60 114.00 L 30.30 110.20 L 26.30 106.00 L 32.90 101.00 L 36.90 106.00 L 41.30 110.30 L 36.70 115.70 L 34.60 114.00 Z M 36.90 115.90 L 41.60 110.60 L 44.60 113.00 L 51.10 117.20 L 47.90 122.90 L 42.30 119.60 L 36.90 115.90 Z M 57.60 123.20 L 51.70 124.80 L 48.20 123.10 L 51.40 117.40 L 58.70 120.60 Z M 51.90 116.50 L 56.20 109.00 L 62.40 111.40 L 59.10 119.70 L 51.90 116.50 Z M 62.60 122.40 L 61.30 122.70 L 62.20 120.60 L 62.30 120.90 L 63.80 120.20 Z M 64.40 122.10 L 63.50 122.30 L 64.80 119.80 L 67.20 118.70 L 65.70 121.50 Z M 66.70 121.10 L 68.20 118.30 L 71.70 116.70 L 70.30 119.50 Z M 71.30 119.00 L 72.70 116.20 L 75.70 114.90 L 74.30 117.60 Z M 75.30 117.10 L 76.80 114.40 L 79.10 113.30 L 77.70 116.00 Z M 78.70 115.60 L 80.10 112.90 L 83.00 111.60 L 81.60 114.20 Z M 82.60 113.80 L 84.00 111.20 L 86.40 110.20 L 85.00 112.80 Z M 86.00 112.20 L 87.40 109.70 L 90.00 108.50 L 88.60 111.00 Z M 89.60 110.60 L 91.00 108.00 L 94.90 106.30 L 93.60 108.70 Z M 100.00 105.50 L 99.30 106.20 L 94.60 108.30 L 95.80 105.90 L 101.00 103.60 Z M 101.50 102.60 L 96.30 104.90 L 97.80 101.90 L 102.90 99.80 Z M 103.30 98.90 L 98.30 101.00 L 99.60 98.40 L 104.60 96.40 Z M 105.10 95.50 L 100.10 97.50 L 101.60 94.30 L 106.60 92.60 Z M 107.10 91.70 L 102.10 93.40 L 103.60 90.40 L 108.50 88.90 Z M 108.90 88.00 L 104.00 89.50 L 105.70 86.10 L 110.40 85.00 Z" fill="#352f2d" fill-rule="nonzero" group-id="126" node-id="903" stroke="none" target-height="151.4" target-width="109.2" target-x="5.5" target-y="49.5"></path></g><g node-id="1091"><path d="M 15.10 187.80 L 14.70 189.70 L 14.00 191.20 L 12.90 192.30 L 11.60 193.10 L 10.00 193.40 L 8.30 193.20 L 6.60 192.40 L 4.10 190.10 L 2.70 187.00 L 2.60 185.20 L 2.80 183.40 L 3.40 181.90 L 4.30 180.70 L 5.50 179.90 L 6.90 179.40 L 8.60 179.40 L 10.30 179.90 L 11.90 180.90 L 13.30 182.20 L 14.30 183.90 L 14.90 185.70 L 15.10 187.80 Z" fill="#999999" fill-rule="nonzero" group-id="127" node-id="908" stroke="none" target-height="14" target-width="12.5" target-x="2.6" target-y="179.4"></path></g><g node-id="1092"><path d="M 9.80 195.90 L 7.60 195.60 L 5.40 194.70 L 3.60 193.30 L 2.10 191.70 L 0.90 189.70 L 0.30 187.50 L 0.00 185.20 L 0.20 183.30 L 1.60 180.00 L 2.90 178.60 L 4.20 177.70 L 7.30 176.80 L 10.60 177.30 L 13.50 178.80 L 15.20 180.60 L 16.60 182.80 L 17.40 185.20 L 17.60 187.90 L 17.40 189.80 L 16.70 191.60 L 15.70 193.20 L 14.30 194.50 L 12.90 195.30 L 9.80 195.90 Z M 7.80 181.90 L 6.20 182.50 L 5.30 183.80 L 5.10 185.20 L 5.30 187.00 L 6.10 188.60 L 7.30 189.90 L 8.90 190.70 L 10.10 190.80 L 11.30 190.40 L 12.40 188.70 L 12.40 186.30 L 12.00 185.10 L 10.40 183.00 L 9.40 182.30 L 7.80 181.90 Z" fill="#352f2d" fill-rule="nonzero" group-id="128" node-id="913" stroke="none" target-height="19.09999" target-width="17.6" target-x="0" target-y="176.8"></path></g><g node-id="1093"><path d="M 46.20 140.20 L 45.80 141.80 L 45.10 143.00 L 44.00 144.00 L 42.70 144.70 L 41.10 145.00 L 39.30 144.90 L 37.70 144.40 L 35.20 142.60 L 34.20 141.30 L 33.50 138.50 L 33.80 137.00 L 34.40 135.80 L 35.30 134.80 L 38.00 133.60 L 39.70 133.50 L 41.50 133.90 L 43.10 134.60 L 44.40 135.70 L 45.40 137.00 L 46.00 138.60 L 46.20 140.20 Z" fill="#999999" fill-rule="nonzero" group-id="129" node-id="918" stroke="none" target-height="11.5" target-width="12.700001" target-x="33.5" target-y="133.5"></path></g><g node-id="1094"><path d="M 40.60 147.50 L 36.70 146.70 L 34.80 145.60 L 33.20 144.20 L 32.00 142.40 L 31.20 140.50 L 30.90 138.40 L 31.10 136.80 L 32.40 134.10 L 34.90 131.90 L 38.20 130.80 L 40.00 130.90 L 42.40 131.40 L 44.60 132.40 L 46.40 134.00 L 47.70 135.80 L 48.50 137.90 L 48.80 140.30 L 48.50 141.80 L 47.10 144.60 L 44.30 146.70 L 42.50 147.30 L 40.60 147.50 Z M 39.10 136.00 L 37.90 136.10 L 36.90 136.80 L 36.30 137.50 L 36.10 138.50 L 36.30 139.80 L 37.10 140.90 L 38.30 141.80 L 39.80 142.30 L 40.90 142.40 L 42.80 141.70 L 43.40 141.00 L 43.70 140.00 L 43.40 138.60 L 42.50 137.30 L 41.20 136.40 L 39.60 136.00 Z" fill="#352f2d" fill-rule="nonzero" group-id="130" node-id="923" stroke="none" target-height="16.699997" target-width="17.9" target-x="30.9" target-y="130.8"></path></g><g node-id="1095"><path d="M 99.60 203.40 L 99.20 205.30 L 98.50 206.80 L 97.40 207.90 L 96.10 208.70 L 94.60 209.00 L 92.80 208.80 L 91.10 208.00 L 88.60 205.70 L 87.30 202.60 L 87.10 200.80 L 87.30 199.00 L 87.90 197.50 L 88.80 196.30 L 90.00 195.50 L 91.40 195.00 L 93.10 195.00 L 94.80 195.50 L 96.40 196.50 L 97.80 197.80 L 98.80 199.50 L 99.40 201.30 L 99.60 203.40 Z" fill="#999999" fill-rule="nonzero" group-id="131" node-id="928" stroke="none" target-height="14" target-width="12.5" target-x="87.1" target-y="195"></path></g><g node-id="1096"><path d="M 94.30 211.50 L 92.10 211.20 L 90.00 210.30 L 88.10 208.90 L 86.60 207.20 L 85.50 205.30 L 84.80 203.10 L 84.50 200.80 L 84.70 198.90 L 86.20 195.60 L 87.40 194.20 L 88.70 193.30 L 91.80 192.40 L 95.10 192.90 L 98.00 194.40 L 99.80 196.20 L 101.10 198.40 L 101.90 200.80 L 102.20 203.50 L 101.90 205.40 L 101.30 207.20 L 100.20 208.70 L 98.90 210.10 L 97.40 210.90 L 94.30 211.50 Z M 92.30 197.50 L 90.70 198.10 L 89.90 199.40 L 89.60 200.80 L 89.90 202.60 L 90.60 204.20 L 91.80 205.50 L 93.40 206.30 L 94.70 206.40 L 95.80 206.00 L 96.50 205.20 L 97.00 203.30 L 96.90 201.90 L 96.50 200.70 L 94.90 198.50 L 92.70 197.50 Z" fill="#352f2d" fill-rule="nonzero" group-id="132" node-id="933" stroke="none" target-height="19.100006" target-width="17.699997" target-x="84.5" target-y="192.4"></path></g><g node-id="1097"><path d="M 67.60 61.10 L 65.60 61.20 L 64.90 61.50 L 63.90 62.70 L 65.90 66.50 L 65.90 67.00 L 65.30 67.10 L 65.50 69.10 L 64.80 70.10 L 64.00 69.80 L 63.90 69.00 L 63.40 70.70 L 62.20 71.10 L 61.60 70.70 L 61.60 68.50 L 61.30 67.30 L 58.40 63.60 L 57.80 62.20 L 57.80 60.90 L 58.40 60.00 L 62.40 55.50 L 64.10 55.00 L 67.60 55.30 Z" fill="#ebc3a9" fill-rule="nonzero" group-id="133" node-id="938" stroke="none" target-height="16.099998" target-width="9.799999" target-x="57.8" target-y="55"></path></g><g node-id="1098"><path d="M 65.50 67.30 L 61.90 63.90 L 61.40 63.00 L 61.80 60.70 L 63.00 58.70 L 61.70 61.80 L 61.70 62.90 L 62.10 63.70 L 65.50 67.30 Z" fill="#7e4c39" fill-rule="nonzero" group-id="134" node-id="943" stroke="none" target-height="8.600002" target-width="4.0999985" target-x="61.4" target-y="58.7"></path></g><g node-id="1099"><path d="M 63.80 69.10 L 61.60 66.00 L 59.50 64.10 L 59.20 63.30 L 59.30 61.70 L 59.50 61.00 L 59.70 61.10 L 59.40 63.30 L 59.60 64.00 L 62.50 66.50 L 63.80 69.10 Z" fill="#7e4c39" fill-rule="nonzero" group-id="135" node-id="948" stroke="none" target-height="8.099998" target-width="4.5999985" target-x="59.2" target-y="61"></path></g><g node-id="1100"><path d="M 67.60 59.60 L 67.60 61.10 L 68.10 61.30 L 71.00 60.20 L 73.70 60.50 L 73.70 59.80 Z" fill="#84cab6" fill-rule="nonzero" group-id="136" node-id="953" stroke="none" target-height="1.7000008" target-width="6.0999985" target-x="67.6" target-y="59.6"></path></g><g node-id="1101"><path d="M 74.20 59.90 L 73.70 59.90 L 73.60 60.60 L 74.20 60.60 L 74.20 59.90 Z" fill="#459281" fill-rule="nonzero" group-id="137" node-id="958" stroke="none" target-height="0.69999695" target-width="0.5999985" target-x="73.6" target-y="59.9"></path></g><path d="M 102.00 108.40 L 96.50 106.70 L 88.00 102.70 L 79.40 97.00 L 72.20 90.60 L 68.80 86.90 L 65.50 82.50 L 62.20 77.50 L 59.40 72.30 L 56.80 66.30 L 54.40 59.50" fill="none" group-id="138" node-id="963" stroke="#352f2d" stroke-linecap="butt" stroke-width="7" target-height="48.9" target-width="47.6" target-x="54.4" target-y="59.5"></path></svg>